<svg xmlns="http://www.w3.org/2000/svg"><defs><font id="HoratioD-Ligh" horiz-adv-x="500"><font-face font-family="Horatio D" font-weight="300" panose-1="2 0 4 6 3 0 0 2 0 3" ascent="800" descent="-200" x-height="427" cap-height="667" bbox="-97 -253 1089 887" underline-thickness="23" underline-position="-153" unicode-range="U+0005-2122"/><glyph glyph-name=".notdef" horiz-adv-x="250"/><glyph glyph-name=".null" horiz-adv-x="0"/><glyph glyph-name="nonmarkingreturn"/><glyph glyph-name="breve" d="M118 602q19-44 54.5-69.5T250 507t76.5 25 55.5 70l-30 7q-42-70-102-70t-103 70z"/><glyph glyph-name="dotaccent" d="M250 583q-10 0-17.5-7.5T225 558q0-11 7-18t18-7 18 7 7 18-7 18-18 7z"/><glyph glyph-name="ring" d="M250 651q-34 0-59-25t-25-59 25-59 59-25q16 0 31.5 7t27 18 18.5 26 7 31q0 18-7 33.5t-18.5 27T282 644t-32 7zm0-29q23 0 38.5-16t15.5-39-16-39-39-16-38 16-15 40q0 23 15.5 38.5T250 622z"/><glyph glyph-name="hungarumlaut" d="M156 489l30-2 32 142h-31zm127 0l29-2 33 142h-31z"/><glyph glyph-name="ogonek" d="M245 0q-29-17-45-42t-16-52q0-35 23.5-58.5T267-176q29 0 50 11v29q-15-6-25-8.5t-21-2.5q-25 0-41 15.5T214-92q0 23 14.5 44T277 0h-32z"/><glyph glyph-name="caron" d="M105 604l121-91q19-13 23-13 5 0 21 11l125 93-22 21-124-91-123 91z"/><glyph glyph-name="dotlessi" horiz-adv-x="169" d="M100 427H69V0h31v427z"/><glyph glyph-name="fraction" horiz-adv-x="123" d="M219 667h-32L-97 0h32z"/><glyph glyph-name="fi" horiz-adv-x="398" d="M232 398v29H111v75q0 72 27.5 103.5T232 639v28q-81-4-116.5-42T80 504v-77H11v-29h69V0h31v398h121zm96 29h-31V0h31v427zm-15 156q-10 0-17.5-7.5T288 558q0-11 7-18t18-7 18 7 7 18-7 18-18 7z"/><glyph glyph-name="fl" horiz-adv-x="399" d="M232 398v29H111v75q0 72 27.5 103.5T232 639v28q-81-4-116.5-42T80 504v-77H11v-29h69V0h31v398h121zm96 269h-31V0h31v667z"/><glyph glyph-name="Lslash" horiz-adv-x="386" d="M115 338l103 79v38l-103-79v291H83V360l-60-46v-38l60 46V60q0-22 1-34t5.5-18 13-7T127 0h260v30H115v308z"/><glyph glyph-name="lslash" horiz-adv-x="171" d="M101 351l60 46v37l-60-47v280H70V372l-60-46v-36l60 46V0h31v351z"/><glyph glyph-name="Zcaron" horiz-adv-x="452" d="M419 30H61l350 582q11 20 13.5 25.5T427 649q0 11-10 14.5t-42 3.5H35v-30h354L45 64Q32 42 28.5 34.5T25 19Q25 0 64 0h355v30zM77 826l125-94q19-13 23-13 7 0 22 12l128 95-22 22-128-94-127 94z"/><glyph glyph-name="zcaron" horiz-adv-x="326" d="M308 29H64l222 344q12 17 15.5 24.5T305 411q0 11-13 14-2 1-4 1.5t-5 .5H27v-29h239L45 56Q33 39 29.5 31.5T26 17Q26 5 41 2q4-2 9-2h258v29zM18 604l121-91q19-13 23-13 5 0 21 11l125 93-22 21-124-91-123 91z"/><glyph glyph-name="space" horiz-adv-x="250"/><glyph glyph-name="space" horiz-adv-x="250"/><glyph glyph-name="exclam" unicode="!" horiz-adv-x="198" d="M114 667H83V96h31v571zM98 46q-11 0-18-7.5T73 20t7-18 18-7 18.5 7 7.5 18-7.5 18.5T98 46z"/><glyph glyph-name="quotedbl" unicode="&quot;" horiz-adv-x="266" d="M188 400v267h-32V400h32zm-80 0v267H76V400h32z"/><glyph glyph-name="numbersign" unicode="#" horiz-adv-x="576" d="M371 247h116l3 25H374l20 136h115l4 25H397l31 218h-26l-31-218H230l30 218h-26l-31-218H88l-3-25h115l-19-136H65l-3-25h115L144 12h26l33 235h142L312 12h26zm-4 161l-19-136H207l19 136h141z"/><glyph glyph-name="dollar" unicode="$" horiz-adv-x="482" d="M256 740h-33v-69q-17-2-26.5-4.5T176 660q-51-20-81-64.5T65 496q0-66 41-110 16-18 38.5-30.5T215 327q24-9 37.5-14t21.5-8 13.5-5 11.5-5q38-17 59.5-49t21.5-73q0-32-12.5-59T333 66.5t-51.5-32T218 23q-32 0-66 8.5T68 60V26q33-15 75.5-24T223-7v-73h33v76q35 6 63.5 22.5t49 39.5 32 52.5T412 173q0 71-48 116-16 15-39.5 27T257 343q-23 8-37 13t-22.5 8.5-14.5 6-14 6.5q-34 17-53 48.5T97 496q0 32 12 59t33 46.5 51 30 66 10.5q14 0 25.5-1t24.5-4 29.5-8.5T379 614v32q-64 25-123 27v67z"/><glyph glyph-name="percent" unicode="%" horiz-adv-x="803" d="M48 428q0-38 4-58.5T67 329q17-31 50-50t68-19q36 0 69 19t50 50q11 20 15 40.5t4 58.5v78q0 37-4 57.5T304 604q-17 31-50 50t-69 19q-35 0-68-19t-50-50q-11-20-15-40.5T48 506v-78zm244 1q0-35-3.5-54T275 339q-14-23-38.5-37T185 288q-26 0-50.5 14T96 339q-10 17-13.5 36T79 429v76q0 33 3.5 52T96 594q28 51 86 51 29 0 54-14t39-37q10-17 13.5-36t3.5-53v-76zm268 238h-33L244 0h32zm-79-506q0-38 4-58.5T500 62q17-31 50-50t68-19 68 19 50 50q11 20 15 40.5t4 58.5v78q0 37-4 57.5T736 337q-17 31-50 50t-68 19-68-19-50-50q-11-20-15-40.5t-4-57.5v-78zm243 1q0-34-3.5-53.5T707 72q-14-23-38.5-37T618 21t-50.5 14T529 72q-10 17-13.5 36.5T512 162v76q0 33 3.5 52t13.5 37q28 51 86 51 29 0 53.5-14t38.5-37q10-17 13.5-36t3.5-53v-76z"/><glyph glyph-name="ampersand" unicode="&amp;" horiz-adv-x="502" d="M457 342h-31v-91q0-23-1-40t-3-31-6.5-26-10.5-26L219 409q19 11 31 18.5t21 13.5 15.5 11 14.5 11q23 20 35.5 47t12.5 56q0 50-33 82.5T232 681q-24 0-45.5-9t-38-24-26-35.5T113 570q0-15 3-30.5t10.5-33T146 468t30-48q-20-12-33-20.5t-21.5-14-14-10T97 366q-32-28-51-71t-19-88q0-44 17-83t46-68 68-45.5T242-6q49 0 88 18.5T405 72l48-72h36l-64 99q10 17 16 32t9.5 32 5 37 1.5 48v94zM388 98q-28-35-66-54.5T240 24q-37 0-70 14.5T112 78t-39.5 58T58 207q0 35 15 72t38 60q6 6 12.5 11t15.5 11 22 13.5 31 18.5zM202 435q-18 28-29 47.5t-17.5 34-9 25.5-2.5 23q0 18 7 33.5t18.5 27T197 644t34 7q38 0 62.5-24t24.5-61q0-52-47-88-6-5-12-9.5t-13.5-9-18-10.5-25.5-14z"/><glyph glyph-name="quotesingle" unicode="'" horiz-adv-x="185" d="M109 400v267H77V400h32z"/><glyph glyph-name="parenleft" unicode="(" horiz-adv-x="219" d="M156 747q-23-38-35-60.5T100 645q-32-69-49.5-148.5T33 335q0-119 31.5-226.5T156-87h33Q124 15 94 117T64 334q0 55 7 106t22 101 38.5 100.5T188 747h-32z"/><glyph glyph-name="parenright" unicode=")" horiz-adv-x="219" d="M62-87q23 39 35.5 61.5T119 15q32 69 49.5 148.5T186 325q0 119-31.5 226.5T62 747H30q64-102 94.5-204T155 326q0-55-7-106t-22-100.5T87.5 19 31-87h31z"/><glyph glyph-name="asterisk" unicode="*" horiz-adv-x="402" d="M217 667h-31V545L70 583l-10-29 117-38-73-99 25-18 73 99 72-99 25 18-73 99 116 38-10 29-115-38v122z"/><glyph glyph-name="plus" unicode="+" d="M65 341v-23h173V129h24v189h174v23H262v189h-24V341H65z"/><glyph glyph-name="comma" unicode="," horiz-adv-x="172" d="M73-83l24 52q7 14 11 27t4 20q0 13-7.5 21.5T86 46t-18-7-7-17Q61 3 82-3L56-83h17z"/><glyph glyph-name="hyphen" unicode="-" horiz-adv-x="167" d="M167 228H0v-30h167v30z"/><glyph glyph-name="period" unicode="." horiz-adv-x="172" d="M85 46q-11 0-18-7.5T60 20t7-18 18-7 18.5 7 7.5 18-7.5 18.5T85 46z"/><glyph glyph-name="slash" unicode="/" horiz-adv-x="371" d="M310 667h-32L60 0h32z"/><glyph glyph-name="zero" unicode="0" horiz-adv-x="492" d="M469 405q0 33-2 58t-6.5 45.5-12 37.5-19.5 34q-31 45-79.5 71T246 677t-103.5-26T63 580q-12-17-19.5-34t-12-37.5T25 463t-2-58V261q0-33 2-58t6.5-45.5 12-37.5T63 86q31-45 79.5-71T246-11t103.5 26T429 86q12 17 19.5 34t12 37.5T467 203t2 58v144zm-414 0q0 30 1.5 51.5t4.5 38 8.5 30.5T84 554q26 45 68.5 69t93.5 24 93.5-24 68.5-69q9-15 14.5-29t8.5-30.5 4.5-38T437 405V261q0-30-1.5-51.5t-4.5-38-8.5-30.5-14.5-29q-26-44-68.5-68.5T246 19t-93.5 24.5T84 112q-9 15-14.5 29T61 171.5t-4.5 38T55 261v144z"/><glyph glyph-name="one" unicode="1" horiz-adv-x="204" d="M43 667v-30h46V0h32v606q0 23-1 35.5t-4 18-10 6.5-19 1H43z"/><glyph glyph-name="two" unicode="2" horiz-adv-x="481" d="M80 30l240 249q29 31 43 46.5t22 27.5q49 65 49 131 0 39-15.5 74.5t-42.5 62-62.5 42T238 678q-42 0-77.5-15.5t-62-42.5-42-64.5T41 475h31q8 81 51.5 127T237 648q34 0 64-13t52.5-35 35.5-52 13-63q0-41-25-88-6-11-12-19.5T351 359t-21-23.5-32-34.5L61 55Q46 39 41 31.5T36 17Q36 0 80 0h352v30H80z"/><glyph glyph-name="three" unicode="3" horiz-adv-x="481" d="M96 507q1 30 12.5 56t30.5 44.5 44.5 29.5 54.5 11 55-11.5 45-31 30-45.5 11-56q0-26-9.5-49T343 414t-39.5-30-49.5-15q-14-2-22-3t-12-2.5-5-4.5-1-8q0-9 6-12t27-4q32-2 59.5-14t47.5-33 31-48.5 11-58.5q0-34-12.5-63.5t-34-51.5T299 31t-62-13-61.5 12.5-50 34-34 50.5T79 177H47q1-40 16-74.5t40.5-60 60-40T238-12q39 0 74 15t60.5 41 40.5 61 15 74q0 117-114 174 97 57 97 152 0 35-14 66.5t-37.5 55-55 37.5-66.5 14-66.5-13.5T117 628t-37-54-15-67h31z"/><glyph glyph-name="four" unicode="4" horiz-adv-x="482" d="M429 226h-55v441h-32L41 243q-13-18-15.5-22.5T23 211q0-9 7.5-12t29.5-3h282V0h32v196h55v30zm-87 0H68l274 385V226z"/><glyph glyph-name="five" unicode="5" horiz-adv-x="482" d="M405 667H72V384h103q57 0 96.5-8t68.5-25q35-21 56.5-61.5T418 201q0-38-13.5-71T367 73t-56.5-38T241 21q-54 0-99 29.5T77 130q-8 18-11 36t-5 47H29v-8q0-46 16-85t44.5-67.5 67.5-45T241-9q44 0 82.5 16T390 51t44 65.5 16 81.5q0 54-25 102t-69 76q-58 38-164 38h-88v223h301v30z"/><glyph glyph-name="six" unicode="6" horiz-adv-x="482" d="M271 667h-33L89 363q-18-36-29-60t-17-42.5-8-34-2-32.5q0-42 17-79.5T96 49t67.5-44.5T245-12t81.5 17 67 45.5 45.5 67 17 81.5q0 44-16.5 82.5t-44.5 67-66 45-81 16.5q-31 0-57-7t-61-26zm-25-287q29 0 60.5-12t55.5-33q62-55 62-138 0-36-14.5-68.5t-39-57-57-39T244 18t-69.5 14.5-57 39T79 129t-14 70 14 70 39 58 57.5 39 70.5 14z"/><glyph glyph-name="seven" unicode="7" horiz-adv-x="481" d="M56 667v-30h355L68 0h34l323 599 11 22 6 12.5 2.5 7.5.5 6q0 8-6.5 13t-15.5 6l-32 1H56z"/><glyph glyph-name="eight" unicode="8" horiz-adv-x="482" d="M311 364q48 30 70 66t22 84q0 34-13 64t-35 52.5-51.5 35.5-63.5 13-64-13-52.5-35.5T88 578t-13-64q0-99 95-149-60-29-91.5-75T47 184q0-40 15-75t41.5-61.5 61.5-42T240-10t75.5 15 62 41.5T419 108t15 75q0 63-31.5 109T311 364zm-71 285q27 0 50.5-11t41.5-29.5 28.5-43T371 513q0-27-10.5-51.5t-28.5-43-42-29.5-50-11q-27 0-51.5 10.5t-42.5 29-28.5 43.5-10.5 53 10.5 52.5 28.5 43 42 29 52 10.5zm2-301q33 0 62-13t51-36 34.5-53.5T402 181q0-32-13-61.5T353.5 68t-52-35T240 20q-33 0-62.5 13t-51 35.5T92 121t-13 63q0 34 12.5 64t34.5 52.5 52 35 64 12.5z"/><glyph glyph-name="nine" unicode="9" horiz-adv-x="482" d="M208 0h33l167 334q13 26 21 44t12.5 33 6 28 1.5 30q0 43-16.5 81.5T387 618t-67.5 45.5T238 680q-44 0-82.5-16.5T88 618t-45.5-68T26 466q0-44 16.5-82.5t44.5-67 66-45 82-16.5q15 0 28.5 1.5T290 262t28 10.5 33 16.5zm30 650q37 0 70-14.5t57-39.5 38-59 14-73q0-37-14-69.5t-38.5-57-57-38.5-69.5-14q-38 0-70.5 14t-57 39T72 396t-14 71 14 71.5 38.5 58 57 39T238 650z"/><glyph glyph-name="colon" unicode=":" horiz-adv-x="172" d="M85 46q-11 0-18-7.5T60 20t7-18 18-7 18.5 7 7.5 18-7.5 18.5T85 46zm0 264q-11 0-18-7.5T60 284t7-18 18-7 18.5 7 7.5 18-7.5 18.5T85 310z"/><glyph glyph-name="semicolon" unicode=";" horiz-adv-x="172" d="M73-83l24 52q7 14 11 27t4 20q0 13-7.5 21.5T86 46t-18-7-7-17Q61 3 82-3L56-83h17zm13 393q-11 0-18-7.5T61 284t7-18 18-7 18.5 7 7.5 18-7.5 18.5T86 310z"/><glyph glyph-name="less" unicode="&lt;" d="M466 539L33 349v-31l433-191v34L70 333l396 173v33z"/><glyph glyph-name="equal" unicode="=" d="M65 408v-23h371v23H65zm0-134v-23h371v23H65z"/><glyph glyph-name="greater" unicode="&gt;" d="M34 539v-33l396-173L34 161v-34l433 191v31z"/><glyph glyph-name="question" unicode="?" horiz-adv-x="475" d="M245 269q29 3 48.5 9t39.5 18q46 29 72.5 75t26.5 98q0 42-16 79t-43.5 65-64 44-78.5 16-78.5-15.5-63-43.5-42-65.5T30 466h30q2 39 15 72t35.5 56 53 36 66.5 13q35 0 66-13.5t54.5-37.5 37-55.5T401 469q0-63-39-108.5T258 302q-16-3-25-5.5t-13-7-5-12.5-1-22V99h31v170zM229 46q-10 0-17.5-7.5T204 20t7.5-18T230-5t18 6.5 7 17.5-7.5 19-18.5 8z"/><glyph glyph-name="at" unicode="@" horiz-adv-x="747" d="M546 208l14 109q2 17 3 31.5t1 25.5q0 33-12 60.5t-33 48-49.5 32T407 526q-41 0-77-15.5t-63-42-43-62-16-75.5q0-35 11.5-64.5t32.5-51 50-33.5 63-12q46 0 84.5 19.5T523 251l-6-48q-1-3-1-7-1-9 6-14.5t19-5.5h19q50 0 79 24 30 24 48 72t18 103q0 65-23.5 120.5t-65.5 96-99 63.5-124 23q-74 0-137.5-26.5t-110.5-73T71 469 44 333q0-71 27-134t73.5-109.5 109-73.5T387-11q130 0 225 89l-21 21q-28-23-51-38.5T494 36t-47-13-53-4q-66 0-124 24.5t-101 67-68 99.5-25 123 24.5 123.5 67.5 100 101 67T393 648q60 0 111-20.5t88.5-57.5 59-87T673 375q0-35-8-65.5t-21.5-53-32-35.5-40.5-13h-25zM402 496q28 0 52.5-10t41.5-27 27-41 10-52q0-33-13.5-63.5t-36-53-52.5-36-63-13.5q-28 0-51.5 10t-41 27.5-27 41.5-9.5 53q0 33 13 63t35.5 52.5 52 35.5 62.5 13z"/><glyph glyph-name="A" unicode="A" horiz-adv-x="504" d="M403 163L457 0h33L282 621q-8 21-12 33t-7.5 17.5-7 7-8.5 1.5-8.5-1.5-6.5-6.5-7-15.5-10-29.5L15 0h32l52 163h304zm-11 30H109l138 434z"/><glyph glyph-name="B" unicode="B" horiz-adv-x="481" d="M142 667h-25q-11 0-18-2t-10.5-8-4.5-17-1-29V51q0-19 1-29.5t6.5-15T107 1t32-1h104q39 0 74 15t60.5 41 40.5 61 15 75q0 36-13.5 70.5T381 322q-15 16-31.5 26T303 370q45 31 63.5 63t18.5 76q0 39-16.5 71.5T321 636q-24 17-50 24t-67 7h-62zm-27-30h63q26 0 45.5-1.5T258 630t27-10 23-15q21-17 33-42.5t12-54.5q0-38-20-69t-53-45q-16-8-39.5-10.5T173 381h-58v256zm0-286h63q31 0 49.5-.5t31-1.5 21-3.5T299 339q47-17 74.5-57t27.5-90q0-40-17.5-74.5T334 60q-23-17-49-23.5T219 30H115v321z"/><glyph glyph-name="C" unicode="C" horiz-adv-x="457" d="M416 667q-10 1-18 1h-11q-51 0-91.5-8.5T217 631q-42-21-75.5-53t-57-70.5-36.5-83T35 333q0-46 12.5-89.5t35-81.5 55-69.5T210 40Q287-1 385-1h13l19 1v30q-26 0-45 .5T336.5 33 306 38t-29 8q-47 15-85.5 43T125 155t-43 83.5T67 334q0 43 11.5 83.5t33 75.5 52 63 69.5 48q36 19 72 26.5t86 7.5h9q8 0 16-1v30z"/><glyph glyph-name="D" unicode="D" horiz-adv-x="520" d="M83 66V26l.5-7 1.5-4q4-8 12.5-11.5T124 0q31 0 51 1.5T213 6q60 11 110 40.5t86 72.5 56 98 20 117q0 53-15.5 102T426 525.5 358 597t-89 49q-32 12-61 16.5t-73 4.5h-8q-18 0-26.5-2T87 655q-2-2-2.5-4t-1-7-.5-15V66zm32 570q9 1 16 1h12q65 0 121.5-23.5T363 549t66-96.5T453 334q0-64-24-119.5T363 118t-98.5-64.5T143 30h-12l-16 1v605z"/><glyph glyph-name="E" unicode="E" horiz-adv-x="427" d="M385 667H133q-18 0-28-1.5T90 659t-6-16.5-1-30.5V58q0-21 1-33t5.5-17.5 15-6.5T133 0h250v30H115v318h253v30H115v259h270v30z"/><glyph glyph-name="F" unicode="F" horiz-adv-x="421" d="M386 667H130q-16 0-25.5-1.5t-14-6.5-6-14.5T83 618V0h32v348h253v30H115v259h271v30z"/><glyph glyph-name="G" unicode="G" horiz-adv-x="757" d="M666 521q-48 75-123.5 116T378 678q-71 0-133.5-27t-109-74T62 467.5 35 333q0-71 27-134t73.5-109.5T245 16t134-27q70 0 132.5 27T621 89t74.5 107T723 326q0 25-12 32l-4 2-6 1.5-12 .5H380v-30h311q0-65-25-121.5T598.5 111t-99-67.5T379 19q-65 0-122 24.5T158 111 91.5 211.5 67 334q0 66 24.5 123.5t67 100.5 100 67.5T381 650q79 0 142-35.5T641 504z"/><glyph glyph-name="H" unicode="H" horiz-adv-x="601" d="M517 667h-32V376H115v291H83V0h32v346h370V0h32v667z"/><glyph glyph-name="I" unicode="I" horiz-adv-x="199" d="M115 667H83V0h32v667z"/><glyph glyph-name="J" unicode="J" horiz-adv-x="271" d="M193 667h-32V228q0-63-11.5-98.5T109 68Q67 30-7 30V0H6q39 0 76.5 16.5T146 62q13 14 22 30t14.5 35.5 8 44T193 228v439z"/><glyph glyph-name="K" unicode="K" horiz-adv-x="442" d="M434 667h-39L135 368q-9-10-12-15.5t-3-11.5 2.5-10.5T134 315L401 0h39L152 341zm-319 0H83V0h32v667z"/><glyph glyph-name="L" unicode="L" horiz-adv-x="386" d="M115 667H83V60q0-22 1-34t5.5-18 13-7T127 0h260v30H115v637z"/><glyph glyph-name="M" unicode="M" horiz-adv-x="723" d="M115 583L331 37q7-16 10.5-25T348-1t5.5-4.5T361-6q4 0 7 .5t6 4.5 6.5 13T391 37l216 546V0h32v627q0 27-3.5 36.5T622 673q-5 0-8-1t-6-4.5-7-11.5-10-23L361 47 131 633q-6 15-10 23t-7 11.5-6 4.5-8 1q-10 0-13.5-9.5T83 627V0h32v583z"/><glyph glyph-name="N" unicode="N" horiz-adv-x="600" d="M516 667h-32V61L131 643q-14 22-18 26.5t-12 4.5q-14 0-17-14-1-5-1-10V0h32v609L465 33q8-13 12.5-20t8-10.5T492-2t7-1q10 0 13.5 8.5T516 40v627z"/><glyph glyph-name="O" unicode="O" horiz-adv-x="756" d="M382 678q-73 0-136-27t-110-73.5T62 468 35 333q0-71 27-134t73.5-109.5T245 16t134-27q70 0 132.5 27t109 73.5 74 108.5T722 329q0 73-26.5 137t-72 111T516 651t-134 27zm-1-30q54 0 107.5-20.5T583 570q107-95 107-241 0-63-25-119t-67.5-98.5-99-67.5T379 19q-64 0-121 25t-99.5 67.5-67 99.5T67 333q0 66 24.5 123t67 100 99.5 67.5T381 648z"/><glyph glyph-name="P" unicode="P" horiz-adv-x="410" d="M115 307h44q52 0 82 6t56 20q40 23 63 64t23 91q0 41-16 75.5T319 624q-29 24-59.5 33.5T179 667h-54q-14 0-22-1.5t-12.5-7-6-15.5-1.5-26V0h32v307zm0 330h63q41 0 68.5-8t51.5-28q26-21 39.5-50t13.5-63q0-38-16.5-70.5T289 365q-13-9-25-14.5t-28-8.5-37-4-52-1h-32v300z"/><glyph glyph-name="Q" unicode="Q" horiz-adv-x="757" d="M596 65q64 57 95 122t31 145q0 72-27 135t-73.5 110-109 74T379 678q-72 0-134.5-27t-109-73.5T62 468 35 333q0-71 27-134t74-109.5T245.5 16 380-11q27 0 50 3t45.5 10T521 20t49 27l50-55h42zM410 264h-42L547 70q-22-14-41.5-23.5t-39-15.5-40.5-9-45-3q-65 0-122.5 24.5t-100 67-67 99.5T67 332t24.5 122.5T158 555t98.5 68T377 648t121-25 99.5-67.5 67.5-100T690 334q0-44-12-86.5T643 167q-7-12-13.5-21T615 128t-18-18.5T573 88z"/><glyph glyph-name="R" unicode="R" horiz-adv-x="487" d="M319 342q88 46 88 150 0 82-61 134-26 22-56.5 31.5T215 667h-73q-30 0-37.5-1.5T91 658q-5-5-6.5-12.5T83 616V0h32v324q4-13 18-13h195q15 0 23.5-1t12.5-5.5 5-14 1-26.5V0h32v282q0 34-15 47t-53 13h-15zM115 637h98q40 0 65.5-8.5T327 600q48-43 48-110 0-89-79-129-20-11-44-15t-62-4h-55q-7 0-11-1.5t-5.5-4-3.5-7.5v308z"/><glyph glyph-name="S" unicode="S" horiz-adv-x="436" d="M358 654q-22 8-37.5 13t-28 8-25 4-28.5 1q-45 0-81.5-13T95 630.5t-40-57T41 500q0-66 40-114 17-20 40.5-32.5T191 327q26-8 41.5-13t24.5-8 14.5-5 11.5-4q35-15 57-49.5t22-76.5q0-33-12.5-60.5t-34.5-48-52.5-32T197 19q-32 0-65.5 8.5T47 56V22Q84 6 124.5-2.5T203-11q40 0 75 14t60.5 38.5 40.5 58 15 71.5q0 35-12 65.5T347 291q-17 18-40.5 30T240 345q-23 7-37 11.5t-24 8-17.5 6.5-16.5 7q-34 17-53 49t-19 73q0 68 44.5 109T237 650q15 0 27-1t25-4 29-9 40-16v34z"/><glyph glyph-name="T" unicode="T" horiz-adv-x="377" d="M361 667H17v-30h156V0h32v637h156v30z"/><glyph glyph-name="U" unicode="U" horiz-adv-x="579" d="M506 667h-32V251q0-26-1.5-45.5T468 170t-8-29.5-12-26.5q-23-43-66.5-69T290 19q-47 0-89.5 24.5T134 110q-16 28-22.5 60.5T105 255v412H73V253q0-31 1.5-54t5-41 9-33T103 95q27-48 78.5-77T290-11t106.5 28.5T474 94q18 31 25 65t7 92v416z"/><glyph glyph-name="V" unicode="V" horiz-adv-x="480" d="M472 667h-33L238 45 41 667H8L207 38q8-25 15-34.5T238-6q10 0 16 8.5T268 37z"/><glyph glyph-name="W" unicode="W" horiz-adv-x="721" d="M693 667h-33L518 61 382 638q-5 20-8.5 25.5T361 669q-10 0-12.5-4t-8.5-26L205 61 61 667H28L181 29q6-23 10-29.5T205-7t14 6.5T229 31l131 559L492 33q5-25 10-32.5T517-7q11 0 15 6.5T542 30z"/><glyph glyph-name="X" unicode="X" horiz-adv-x="428" d="M410 667h-35L214 370 50 667H15l181-329L11 0h35l168 307L382 0h35L232 338z"/><glyph glyph-name="Y" unicode="Y" horiz-adv-x="437" d="M430 667h-35L229 326 43 667H8l205-374V0h32v293z"/><glyph glyph-name="Z" unicode="Z" horiz-adv-x="452" d="M419 30H61l350 582q11 20 13.5 25.5T427 649q0 11-10 14.5t-42 3.5H35v-30h354L45 64Q32 42 28.5 34.5T25 19Q25 0 64 0h355v30z"/><glyph glyph-name="bracketleft" unicode="[" horiz-adv-x="240" d="M220 747H103V-86h117v25h-89v783h89v25z"/><glyph glyph-name="backslash" unicode="\" horiz-adv-x="371" d="M60 667L278 0h32L92 667H60z"/><glyph glyph-name="bracketright" unicode="]" horiz-adv-x="240" d="M20-86h117v833H20v-25h89V-61H20v-25z"/><glyph glyph-name="asciicircum" unicode="^" d="M79 389l170 254 172-254h38L271 667h-41L42 389h37z"/><glyph glyph-name="underscore" unicode="_" d="M0-109v-23h500v23H0z"/><glyph glyph-name="grave" unicode="`" d="M285 489l-38 140h-31l39-142z"/><glyph glyph-name="a" unicode="a" horiz-adv-x="531" d="M443 0h31v177q0 29-1.5 50.5t-5 39-10 32.5-15.5 31q-29 50-79.5 78.5T252 437q-46 0-86.5-17.5T95 372t-47-70.5T31 214t17-87.5T95 56t70-47 86-17q125 0 192 110V0zM254 408q39 0 73.5-15.5t60-42 40-62.5 14.5-77q0-39-15-73.5T386 77t-60.5-41T252 21t-73.5 15T118 77.5 77 139t-15 75 15 75.5 41 61.5 61 41.5 75 15.5z"/><glyph glyph-name="b" unicode="b" horiz-adv-x="531" d="M88 667H57V252q0-29 1.5-50.5t5-39 10-32.5T89 99q29-50 79.5-78.5T279-8q46 0 86.5 17.5T436 57t47 70.5 17 87.5q0 46-17 86.5T436 372t-70 47.5-86 17.5q-125 0-192-110v340zm191-259q39 0 73.5-15.5T413 351t41-61 15-75-15-75.5T413 78t-61-41.5T277 21q-39 0-73.5 15.5t-60 42-40 62.5T89 218q0 39 15 73.5t41 60.5 60.5 41 73.5 15z"/><glyph glyph-name="c" unicode="c" horiz-adv-x="336" d="M307 398v29h-23q-42 0-70-4t-53-15q-59-25-94-78T32 212q0-36 11.5-68.5t32-59.5T124 37.5 185 10q12-3 24-5t26-3T266.5.5 307 0v30q-8-1-17-1h-10q-42 0-72 6t-53 19q-43 24-67.5 66.5T63 213q0 59 32 106t86 66q20 7 42.5 10t52.5 3h31z"/><glyph glyph-name="d" unicode="d" horiz-adv-x="531" d="M443 327q-67 110-192 110-46 0-86-17.5T95 372t-47-70.5T31 215q0-47 17-87.5T95 57t70.5-47.5T252-8q60 0 110.5 28.5T442 99q9 16 15.5 31t10 32.5 5 39T474 252v415h-31V327zm-190 81q40 0 74.5-15.5t60-42 40-62T442 212q0-39-15-73.5t-41-61T325.5 36 252 21t-73.5 15.5-60.5 42T77 140t-15 75 15 75 41 61.5 60.5 41.5 74.5 15z"/><glyph glyph-name="e" unicode="e" horiz-adv-x="509" d="M440 165q-20-66-69.5-105T255 21q-38 0-72 14t-60 38.5T81 131t-18 71h375q26 0 33 4t7 19q0 17-7 43t-18 47q-28 57-81.5 89.5T255 437q-46 0-86.5-17.5t-71-48-48-71T32 214t17.5-86.5T97 57t70.5-47.5T254-8q80 0 137 45.5T471 165h-31zM64 231q3 37 19.5 69.5t42 56.5 58.5 37.5 70 13.5 70.5-13.5T384 357t42.5-56.5T446 231H64z"/><glyph glyph-name="f" unicode="f" horiz-adv-x="229" d="M232 398v29H111v75q0 72 27.5 103.5T232 639v28q-81-4-116.5-42T80 504v-77H11v-29h69V0h31v398h121z"/><glyph glyph-name="g" unicode="g" horiz-adv-x="533" d="M445-1q0-49-6.5-79.5T417-137q-23-38-60-59t-82-21q-37 0-68 13t-53.5 36-35.5 54.5T104-44H73q0-42 15.5-79t42.5-64.5 64-43.5 79-16q48 0 92 22.5t71 61.5q21 29 30 64.5t9 86.5v196q0 27-1.5 47t-5 37-10 31.5T444 330q-31 51-81.5 79T253 437q-46 0-86-17.5t-70-48-47.5-71T32 214t17.5-86.5T97 57t70-47.5T252-8q60 0 110.5 28t82.5 81V-1zM255 408q39 0 74-15.5t60.5-42T430 288t15-76q0-39-15.5-73.5T388 78t-60.5-41.5T255 21q-40 0-75 15.5T119 78t-41 61.5T63 215t15 75 41 61 61 41.5 75 15.5z"/><glyph glyph-name="h" unicode="h" horiz-adv-x="451" d="M101 667H70V0h31v253q0 70 35 112.5t92 42.5q36 0 66.5-20t45.5-52q14-31 14-87V0h31v247q0 21-1 37t-3.5 28.5T374 336t-10 22q-20 36-57 57.5T228 437q-74 0-127-65v295z"/><glyph glyph-name="i" unicode="i" horiz-adv-x="169" d="M101 427H70V0h31v427zM85 583q-10 0-17.5-7.5T60 558q0-11 7-18t18-7 18 7 7 18-7 18-18 7z"/><glyph glyph-name="j" unicode="j" horiz-adv-x="170" d="M101 427H70V-32q0-40-1.5-66t-6-42.5-12.5-27T29-187q-15-11-33.5-15.5T-53-207v-29q48 0 78.5 13T76-182q8 12 13 23.5t7.5 28T100-91t1 58v460zM86 583q-10 0-17.5-7.5T61 558q0-11 7-18t18-7 18 7 7 18-7 18-18 7z"/><glyph glyph-name="k" unicode="k" horiz-adv-x="351" d="M331 427h-41L118 254q-8-9-11-13.5t-3-9.5q0-6 14-23L310 0h41L139 230zM101 667H70V0h31v667z"/><glyph glyph-name="l" unicode="l" horiz-adv-x="171" d="M101 667H70V0h31v667z"/><glyph glyph-name="m" unicode="m" horiz-adv-x="630" d="M65 0h31v259q0 46 4 67t15 38q14 20 36.5 32t46.5 12q23 0 45-11.5t35-31.5q11-17 16-39.5t5-59.5V0h31v264q0 32 4 54.5t13 39.5q12 23 35.5 36.5T432 408q28 0 53-16t36-42q7-16 9.5-35t2.5-50V0h31v264q0 47-5 70.5T541 379q-17 26-46.5 42T433 437q-75 0-118-71-17 33-49 52t-70 19q-29 0-55.5-12.5T96 389q-17-22-24-47.5T65 272V0z"/><glyph glyph-name="n" unicode="n" horiz-adv-x="446" d="M381 0v235q0 25-1 44t-4 33.5-8 27-13 24.5q-20 34-55 53.5T224 437q-42 0-78.5-20.5T89 362q-13-22-18.5-49.5T65 243V0h31v238q0 41 4.5 64.5T118 347q16 29 44 45t61 16q35 0 63.5-17t44.5-47q6-11 9.5-20.5T346 302t3-27.5 1-36.5V0h31z"/><glyph glyph-name="o" unicode="o" horiz-adv-x="506" d="M253 437q-46 0-86.5-17.5T96 372t-47-71-17-87 17-86.5T95.5 57t69-47.5T249-8q47 0 88 17t71.5 47 48 70 17.5 87-17 88-47 71-70.5 47.5T253 437zm0-29q39 0 73.5-15.5t60-41.5 40.5-62 15-76-15-75-41-61-61-41-75-15q-38 0-71.5 15.5t-59 42T79 140t-15 74q0 40 15 75.5t40.5 61.5 60 41.5T253 408z"/><glyph glyph-name="p" unicode="p" horiz-adv-x="531" d="M88 102Q155-8 280-8q46 0 86 17t70 47 47 70.5 17 87.5-17 87.5-47 70.5-70.5 47.5T279 437q-60 0-110.5-28.5T89 330q-9-16-15.5-31t-10-32.5-5-39T57 177v-415h31v340zm191 306q39 0 73.5-15.5t60.5-42 41-61.5 15-75-15-75-41-61.5T352 36t-74-15q-40 0-74.5 15.5t-60 42-40 62T89 217q0 39 15 73.5t41 61 60.5 41.5 73.5 15z"/><glyph glyph-name="q" unicode="q" horiz-adv-x="531" d="M443-238h31v415q0 29-1.5 50.5t-5 39-10 32.5-15.5 31q-29 50-79.5 78.5T252 437q-46 0-86.5-17.5T95 372t-47-70.5T31 214t17-87.5T95 56t70-47 86-17q125 0 192 110v-340zM254 408q39 0 73.5-15.5t60-42 40-62.5 14.5-77q0-39-15-73.5T386 77t-60.5-41T252 21t-73.5 15T118 77.5 77 139t-15 75 15 75.5 41 61.5 61 41.5 75 15.5z"/><glyph glyph-name="r" unicode="r" horiz-adv-x="236" d="M216 428q-32 0-52.5-5.5T124 405q-32-21-45.5-55T65 255V0h31v252q0 40 6 67.5t20.5 44.5 37.5 25.5 56 9.5v29z"/><glyph glyph-name="s" unicode="s" horiz-adv-x="318" d="M255 418q-25 11-42 15t-38 4q-28 0-51.5-8.5t-41-23.5-27-35-9.5-44q0-38 19.5-63t61.5-44q32-14 50.5-22.5T200 185q41-25 41-71 0-19-7.5-36T213 48.5t-30.5-20T146 21q-22 0-42.5 6.5T45 51V18Q74 3 94-2.5T139-8q58 0 95.5 35t37.5 90q0 22-5.5 39t-19 31.5-37 27.5-58.5 27q-41 17-58 36t-17 49q0 16 7.5 31t20 26 29 17.5T169 408q20 0 38.5-5t47.5-18v33z"/><glyph glyph-name="t" unicode="t" horiz-adv-x="239" d="M75 427H2v-29h73V173q0-51 8.5-80.5T113 40q20-21 46.5-30.5T226 0v29q-33 1-56 9.5T132.5 64 112 108.5t-6 67.5v222h120v29H106v150H75V427z"/><glyph glyph-name="u" unicode="u" horiz-adv-x="446" d="M65 427V192q0-26 1-44.5t4-33 8-27T91 63q20-34 55-53.5T222-10q42 0 78.5 20.5T357 65q13 22 18.5 49.5T381 184v243h-31V189q0-41-4.5-64.5T328 80q-16-29-44-45t-61-16q-35 0-63.5 17T115 83q-6 10-9.5 20t-5.5 22-3 27.5-1 36.5v238H65z"/><glyph glyph-name="v" unicode="v" horiz-adv-x="357" d="M344 427h-32L178 48 45 427H13L147 42q7-19 10.5-29T164-1.5t6-5.5 8-1 8 .5 6 5 7 14T209 39z"/><glyph glyph-name="w" unicode="w" horiz-adv-x="543" d="M272 368l87-336 4-18q5-22 20-22 11 0 15.5 6.5T412 34l105 393h-31L385 54l-90 346q-5 21-8.5 25.5T272 430t-14.5-4.5T248 400L159 54 58 427H27L132 34q8-29 12.5-35.5T160-8q16 0 20 22l5 18z"/><glyph glyph-name="x" unicode="x" horiz-adv-x="358" d="M341 427h-36L180 249 56 427H21l140-205L7 0h37l136 195L314 0h37L199 222z"/><glyph glyph-name="y" unicode="y" horiz-adv-x="472" d="M401 427h-31V191q0-41-3.5-64T354 86q-14-29-45.5-48T243 19q-35 0-65.5 19.5T133 90q-8 20-11 41t-3 61v235H88V192q0-26 .5-42t1.5-27 3.5-20 7.5-20q17-42 56-67.5T244-10q19 0 34.5 3t30 10.5 29.5 20T370 54v-84q0-24-1-41.5t-3-31-5-24.5-8-23q-15-34-47-54t-72-20q-71 0-113 59-14 19-19 36t-6 46H65q2-34 8.5-53.5T95-179q51-74 139-74 45 0 84 22.5t59 60.5q7 13 11.5 26.5t7.5 29 4 36 1 48.5v457z"/><glyph glyph-name="z" unicode="z" horiz-adv-x="326" d="M307 29H63l222 344q12 17 15.5 24.5T304 411q0 11-13 14-2 1-4 1.5t-5 .5H26v-29h239L44 56Q32 39 28.5 31.5T25 17Q25 5 40 2q4-2 9-2h258v29z"/><glyph glyph-name="braceleft" unicode="{" horiz-adv-x="250" d="M128 620q0 54 20 76t72 26v25h-6q-63 0-90-31T97 614V442q0-44-13-66t-46-33v-21q34-12 46.5-33T97 223V71q0-44 6-73t20-46.5T160.5-73t59.5-7v24q-52 2-72 25.5T128 51v170q0 48-12 72.5T75 332q30 14 41.5 37.5T128 440v180z"/><glyph glyph-name="bar" unicode="|" d="M233 667v-834h33v834h-33z"/><glyph glyph-name="braceright" unicode="}" horiz-adv-x="250" d="M123 51q0-58-20-81.5T30-56v-24q36 0 60 7t38 24.5T148-2t6 73v152q0 45 12 66t46 33v21q-32 11-45 33t-13 66v172q0 71-27 102t-90 31h-7v-25q52-4 72.5-26t20.5-76V440q0-47 11.5-70.5T176 332q-29-14-41-38.5T123 221V51z"/><glyph glyph-name="asciitilde" unicode="~" horiz-adv-x="667" d="M118 598q26 45 49 64t53 19q21 0 42-7.5t60-28.5q24-13 42-21.5t32-14 25.5-7.5 22.5-2q39 0 68.5 23t58.5 74l-22 16q-26-45-50-64t-55-19q-10 0-19.5 1.5t-21 6-26.5 12-37 19.5q-45 24-71 33t-48 9q-38 0-67.5-23T95 614z"/><glyph glyph-name="exclamdown" unicode="¡" horiz-adv-x="198" d="M83 0h31v571H83V0zm16 672q-11 0-18.5-7.5T73 647q0-11 7.5-18.5T99 621t18 7.5 7 18.5-7 18-18 7z"/><glyph glyph-name="cent" unicode="¢" horiz-adv-x="557" d="M347 630h-23v-88q-41-7-74.5-25.5t-57-46-36.5-63-13-75.5 13-75 37-62 57-45.5 74-24.5V40h23v82q16-2 31-2h40v30q-8-1-17-1h-10q-42 0-72 6t-53 19q-43 24-67.5 66.5T174 333q0 59 32 106t86 66q20 7 42.5 10t52.5 3h12q8 0 19-1v30h-47l-24-2v85z"/><glyph glyph-name="sterling" unicode="£" horiz-adv-x="507" d="M458 175q-2-34-5.5-52T441 88q-13-31-43-50t-66-19q-8 0-15 .5t-16.5 2-23 4T243 33q-32 7-54 9.5T144 45q-16 0-28-1t-29-4q56 59 56 151 0 26-2.5 54t-9.5 70h175v30H126q-2 11-3 19t-3 16q-6 29-9.5 45t-5 25.5-2 16-.5 15.5q0 35 12.5 65.5t34 52.5 51.5 34.5 65 12.5q45 0 82.5-20.5T409 569q13-22 18.5-43t7.5-56h31q-1 33-5 53t-15 43q-25 51-74.5 81T264 677q-41 0-76-15t-61-41.5-41-62T71 482q0-13 1-25t4-23q2-14 5-27t5-26q2-10 3.5-18.5T93 345H13v-30h85q8-40 10.5-66t2.5-53q0-63-20.5-103.5T25 29V-3Q69 7 95.5 10.5T149 14q23 0 44-2.5T243 1q16-4 27-6t19.5-3.5 16.5-2 17-.5q51 0 89 21.5T467 71q10 22 14.5 43t7.5 61h-31z"/><glyph glyph-name="currency" unicode="¤" horiz-adv-x="667" d="M79 113l21-21 89 90q67-55 145-55 81 0 146 55l90-90 20 21-89 89q54 66 54 145 0 41-13 75.5T501 492l89 88-21 21-89-88q-66 56-147 56-42 0-77-13.5T186 513l-89 88-21-21 90-88q-55-67-55-144 0-79 55-146zm257 426q38 0 72-15t59.5-41.5 40.5-61 15-73.5-15-74-40.5-60.5-60-40.5-73.5-15-74 15-60.5 40.5T159 274t-15 74q0 40 15 75t41 60.5 61 40.5 75 15z"/><glyph glyph-name="yen" unicode="¥" horiz-adv-x="421" d="M305 429l106 238h-34L273 429H141L25 667h-35l118-238H37v-30h86l64-131H37v-30h158V0h32v238h159v30H234l58 131h94v30h-81zm-149-30h104l-49-113z"/><glyph glyph-name="brokenbar" unicode="¦" d="M233 667V343h33v324h-33zm0-514v-320h33v320h-33z"/><glyph glyph-name="section" unicode="§" horiz-adv-x="453" d="M363 690q-35 15-63.5 21.5T239 718q-31 0-57.5-9.5t-45.5-26-29.5-40T96 592q0-41 20.5-68.5T182 476q-29-9-45-18t-32-25q-23-23-35-53t-12-62q0-53 32-93 17-21 41-34.5t66-24.5q38-10 61-18.5t37-17.5q24-16 37-38.5T345 43q0-23-10-42t-28-33.5T264.5-55 212-63q-76 0-159 37v-33q46-19 80.5-26.5T206-93q37 0 68.5 10.5t54 28.5T364-11t13 55q0 85-102 128 30 10 46.5 19.5T354 217q21 22 33 51t12 59q0 118-144 157-33 9-51 15.5T175 513q-22 14-34.5 35T128 593q0 30 21 57 16 20 39.5 29t59.5 9q13 0 22.5-1t21.5-3.5 28.5-8T363 661v29zM226 456q30 0 55.5-10.5T326 417t30-42 11-52q0-29-10.5-52.5t-29-41-44-27T228 193q-26 0-51.5 9T131 228q-22 18-31.5 41T90 324q0 28 10.5 52t28.5 42 43 28 54 10z"/><glyph glyph-name="dieresis" unicode="¨" d="M173 583q-10 0-17.5-7.5T148 558q0-11 7-18t18-7 18 7 7 18-7 18-18 7zm153 0q-10 0-17.5-7.5T301 558q0-11 7-18t18-7 18 7 7 18-7 18-18 7z"/><glyph glyph-name="copyright" unicode="©" horiz-adv-x="780" d="M395 677q-73 0-136.5-27T148 576.5t-74-109T47 333q0-71 27-133.5t73.5-109T257 17t134-27 133.5 27 109 73.5T707 200t27 134q0 70-27 132.5t-73 109-108 74T395 677zm0-22q64 0 121.5-25.5T617 560t68-102.5T710 333t-25-124.5-68.5-102-101.5-69T391 12 266.5 37.5t-102 69-68.5 102T71 333q0 67 25 126t68.5 102.5 103 68.5T395 655zm60-129q-8 1-12 1h-8q-31 0-54.5-5T335 506q-48-25-75.5-70.5T232 336q0-41 15-75.5t42-60 63-40 78-14.5h6l19 1v28h-14q-22 0-37.5 1.5T374 183q-51 16-81.5 58T262 337q0 46 23.5 84t64.5 59q19 10 38.5 14t47.5 4h19v28z"/><glyph glyph-name="ordfeminine" unicode="ª" horiz-adv-x="347" d="M280 267h27v107q0 35-4.5 54.5T287 467q-19 30-51 47t-70 17q-30 0-55.5-10.5t-44.5-29-30-43T25 396t11-52.5T66 301t44.5-28.5T165 262q36 0 62.5 13t52.5 43v-51zM167 507q24 0 44.5-9t35.5-24 24-35.5 9-44.5q0-22-9-41.5T246.5 318 210 294.5t-44-8.5-44 8.5T85.5 318 61 353t-9 43 9 43 25 35 36.5 24 44.5 9z"/><glyph glyph-name="guillemotleft" unicode="«" horiz-adv-x="351" d="M33 212L168 29l24 18L71 212l121 166-24 18zm120 0L287 30l23 17-118 165 118 164-23 19z"/><glyph glyph-name="logicalnot" unicode="¬" d="M433 0h33v269H33v-30h400V0z"/><glyph glyph-name="registered" unicode="®" horiz-adv-x="780" d="M395 677q-73 0-136.5-27T148 576.5t-74-109T47 333q0-71 27-133.5t73.5-109T257 17t134-27 133.5 27 109 73.5T707 200t27 134q0 70-27 132.5t-73 109-108 74T395 677zm0-22q64 0 121.5-25.5T617 560t68-102.5T710 333t-25-124.5-68.5-102-101.5-69T391 12 266.5 37.5t-102 69-68.5 102T71 333q0 67 25 126t68.5 102.5 103 68.5T395 655zm-61-128q-26 0-32.5-6t-6.5-29V147h30v173q5-1 8-1h103q13 0 15-2.5t2-17.5V147h30v162q0 19-7 27.5T451 347q19 17 27 35t8 43q0 45-31 73.5T374 527h-40zm-9-29h48q38 0 60.5-20t22.5-55q0-75-96-75h-29q-1 0-6-1v151z"/><glyph glyph-name="macron" unicode="¯" d="M386 573H114v-30h272v30z"/><glyph glyph-name="degree" unicode="°" horiz-adv-x="422" d="M213 671q-30 0-57-11t-46.5-30.5-31-45.5T67 528t11.5-57 31-46.5 46.5-31 57-11.5q29 0 55 11.5t45.5 31 31 45.5 11.5 56-11 56.5-30.5 46-45.5 31-56 11.5zm-3-30q24 0 45-9t36.5-25 24.5-37 9-46q0-23-9-43.5T291.5 445t-36-24-43.5-9q-24 0-44.5 9t-36 25-24.5 36.5-9 44.5q0 23 9 44t24 36.5 35.5 24.5 43.5 9z"/><glyph glyph-name="plusminus" unicode="±" d="M65 368v-23h173V156h24v189h174v23H262v188h-24V368H65zm0-267V78h371v23H65z"/><glyph glyph-name="twosuperior" unicode="²" horiz-adv-x="320" d="M80 296l130 135q20 21 33 37t21 30 11 27.5 3 28.5q0 24-9.5 45.5t-26 38-38.5 26-46 9.5q-25 0-47-9.5t-38.5-26-26-38.5-9.5-48v-8h30q4 48 27.5 74t63.5 26q18 0 34-7t28.5-19 19.5-28.5 7-34.5q0-24-12-45.5T189 452L51 309q-9-10-12.5-15.5T35 283q0-16 31-16h211v29H80z"/><glyph glyph-name="threesuperior" unicode="³" horiz-adv-x="320" d="M81 562q2 38 22.5 60t54.5 22q32 0 54-23t22-55q0-28-19.5-48.5T166 494q-17-2-22.5-4.5T138 479q0-17 25-17 35-2 58-25.5t23-58.5q0-18-7-34.5T218.5 315t-27-19-33.5-7q-38 0-62 25.5T71 382H41v-19q0-3 2-10 4-20 15-37t26-29.5 34-19.5 40-7q24 0 45.5 9.5t37.5 25 25 37 9 45.5q0 68-60 102 50 34 50 88 0 22-8.5 41t-23 33.5-34 23T158 673q-46 0-76-31.5T52 562h29z"/><glyph glyph-name="acute" unicode="´" d="M216 489l30-2 39 142h-31z"/><glyph glyph-name="mu" unicode="µ" horiz-adv-x="446" d="M65 429v-667h31V55q48-65 126-65 42 0 78.5 20.5T357 65q13 22 18.5 49.5T381 184v243h-31V189q0-41-4.5-64.5T328 80q-16-29-44-45t-61-16q-40 0-71 22t-46 61q-3 9-5 17t-3 18.5-1.5 25T96 199v230H65z"/><glyph glyph-name="paragraph" unicode="¶" horiz-adv-x="471" d="M217-113h24v759h120v-759h24v759h63v21H225q-38 0-70-6.5T101 642q-41-22-64.5-63.5T13 487q0-39 14-71.5t38.5-56 59-36.5 76.5-13h16v-423z"/><glyph glyph-name="glyph133" unicode="·" horiz-adv-x="167" d="M83 240q-11 0-18-7.5T58 214t7-18 18-7 18.5 7 7.5 18-7.5 18.5T83 240z"/><glyph glyph-name="glyph133" unicode="∙" horiz-adv-x="167" d="M83 240q-11 0-18-7.5T58 214t7-18 18-7 18.5 7 7.5 18-7.5 18.5T83 240z"/><glyph glyph-name="cedilla" unicode="¸" d="M211 0v-64q58-6 58-43 0-23-16-33.5T200-153v-26q22 0 33.5 1.5T256-171q20 8 31.5 25t11.5 39q0 25-15 42.5T240-40V0h-29z"/><glyph glyph-name="onesuperior" unicode="¹" horiz-adv-x="320" d="M120 667v-29h27V267h31v359q0 27-4.5 34t-21.5 7h-32z"/><glyph glyph-name="ordmasculine" unicode="º" horiz-adv-x="331" d="M166 531q-29 0-55-10.5t-45-29-30-43T25 396q0-27 11-51.5t30-43 44-29 54-10.5q30 0 56 10.5t45.5 28.5 30.5 42 11 52q0 29-11 54t-30 43-44.5 28.5T166 531zm0-24q23 0 43.5-9t36-24 24.5-35 9-43-9-43-24.5-35-36.5-23.5-45-8.5q-23 0-43 9t-35 24-24 35-9 42q0 23 9 43t24.5 35 36 24 43.5 9z"/><glyph glyph-name="guillemotright" unicode="»" horiz-adv-x="351" d="M317 213L182 396l-23-18 120-165L159 48l23-19zm-120 0L63 396l-23-18 119-165L40 49l23-18z"/><glyph glyph-name="onequarter" unicode="¼" horiz-adv-x="763" d="M120 667v-29h27V267h31v359q0 27-4.5 34t-21.5 7h-32zm420 0h-32L224 0h32zm178-523h-31v256h-28L482 151q-8-10-9.5-13t-1.5-8q0-9 5.5-12.5T498 114h158V0h31v114h31v30zm-62 0H514l142 199V144z"/><glyph glyph-name="onehalf" unicode="½" horiz-adv-x="763" d="M120 667v-29h27V267h31v359q0 27-4.5 34t-21.5 7h-32zm420 0h-32L224 0h32zM524 29l130 135q20 21 33 37t21 30.5 11 28 3 28.5q0 24-9.5 46t-26 38-38.5 25.5-46 9.5q-25 0-47-9.5t-38.5-26-26-38.5-9.5-48v-8h30q5 49 28 75t63 26q18 0 34-7t28.5-19 19.5-28.5 7-34.5q0-24-12.5-46T633 186L495 42q-16-16-16-26 0-16 31-16h211v29H524z"/><glyph glyph-name="threequarters" unicode="¾" horiz-adv-x="763" d="M81 562q2 38 22.5 60t54.5 22q32 0 54-23t22-55q0-28-19.5-48.5T166 494q-17-2-22.5-4.5T138 479q0-17 25-17 35-2 58-25.5t23-58.5q0-18-7-34.5T218.5 315t-27-19-33.5-7q-38 0-62 25.5T71 382H41v-19q0-3 2-10 4-20 15-37t26-29.5 34-19.5 40-7q24 0 45.5 9.5t37.5 25 25 37 9 45.5q0 68-60 102 50 34 50 88 0 22-8.5 41t-23 33.5-34 23T158 673q-46 0-76-31.5T52 562h29zm459 105h-33L223 0h33zm178-523h-32v256h-28L481 151q-8-10-9.5-13t-1.5-8q0-9 5.5-12.5T497 114h158V0h31v114h32v30zm-63 0H513l142 199V144z"/><glyph glyph-name="questiondown" unicode="¿" horiz-adv-x="475" d="M230 398q-41-5-75.5-22T95 332t-38.5-61.5T43 197q0-42 16-78.5T102.5 54t64-44T245-6t78.5 15.5 63 43 42 65T445 200h-30q-2-39-15-71.5T364.5 73t-53-36T245 24q-35 0-66.5 13.5t-54.5 37-36.5 55T74 197q0 63 39 108.5T217 364q16 3 25 5.5t13 7 5 12.5 1 22v157h-31V398zm14 275q-11 0-18-6.5t-7-17.5 7.5-19 18.5-8 18 7.5 7 18.5-7.5 18-18.5 7z"/><glyph glyph-name="Agrave" unicode="À" horiz-adv-x="504" d="M403 163L457 0h33L282 621q-8 21-12 33t-7.5 17.5-7 7-8.5 1.5-8.5-1.5-6.5-6.5-7-15.5-10-29.5L15 0h32l52 163h304zm-11 30H109l138 434zm-78 543l-96 114-29-13 98-116z"/><glyph glyph-name="Aacute" unicode="Á" horiz-adv-x="504" d="M403 163L457 0h33L282 621q-8 21-12 33t-7.5 17.5-7 7-8.5 1.5-8.5-1.5-6.5-6.5-7-15.5-10-29.5L15 0h32l52 163h304zm-11 30H109l138 434zM190 736l27-15 98 116-29 13z"/><glyph glyph-name="Acircumflex" unicode="Â" horiz-adv-x="504" d="M403 163L457 0h33L282 621q-8 21-12 33t-7.5 17.5-7 7-8.5 1.5-8.5-1.5-6.5-6.5-7-15.5-10-29.5L15 0h32l52 163h304zm-11 30H109l138 434zm9 547l-125 94q-11 8-15.5 11t-7.5 3-7.5-2.5T231 836l-128-96 22-21 129 94 126-94z"/><glyph glyph-name="Atilde" unicode="Ã" horiz-adv-x="504" d="M403 163L457 0h33L282 621q-8 21-12 33t-7.5 17.5-7 7-8.5 1.5-8.5-1.5-6.5-6.5-7-15.5-10-29.5L15 0h32l52 163h304zm-11 30H109l138 434zM124 738q28 24 41 31.5t28 7.5q12 0 21.5-4t34.5-18q37-22 62-22 41 0 86 48l-16 25-11-10q-19-17-31-23.5t-27-6.5q-6 0-11 .5t-10.5 3-14 7T254 789q-34 20-61 20-21 0-39.5-10.5T108 761z"/><glyph glyph-name="Adieresis" unicode="Ä" horiz-adv-x="504" d="M403 163L457 0h33L282 621q-8 21-12 33t-7.5 17.5-7 7-8.5 1.5-8.5-1.5-6.5-6.5-7-15.5-10-29.5L15 0h32l52 163h304zm-11 30H109l138 434zM167 799q-11 0-18.5-7.5T141 773t7.5-18.5T167 747t18.5 7.5T193 773t-7.5 18.5T167 799zm172 0q-11 0-18.5-7.5T313 773t7.5-18.5T339 747t18.5 7.5T365 773t-7.5 18.5T339 799z"/><glyph glyph-name="Aring" unicode="Å" horiz-adv-x="504" d="M403 163L457 0h33L282 621q-8 21-12 33t-7.5 17.5-7 7-8.5 1.5-8.5-1.5-6.5-6.5-7-15.5-10-29.5L15 0h32l52 163h304zm-11 30H109l138 434zM253 887q-18 0-33.5-7T192 861t-19-27.5-7-32.5q0-35 25.5-60.5T252 715q17 0 33 7t28 18.5 19 26.5 7 32q0 18-7 34t-19 28-27.5 19-32.5 7zm0-30q23 0 39-16.5t16-39.5-16.5-39.5T252 745t-39 16.5-16 40.5q0 23 16 39t40 16z"/><glyph glyph-name="AE" unicode="Æ" horiz-adv-x="650" d="M608 667H353q-13 0-20-.5t-12-4-9.5-11T300 630L0 0h33l84 175h191V48q0-17 1.5-26.5t6.5-14 15.5-6T360 0h248v30H340v318h253v30H340v259h268v30zM308 205H132l176 371V205z"/><glyph glyph-name="Ccedilla" unicode="Ç" horiz-adv-x="457" d="M350 1q9-2 17-2h31l19 1v30q-26 0-45 .5T336.5 33 306 38t-29 8q-47 15-85.5 43T125 155t-43 83.5T67 334q0 43 11.5 83.5t33 75.5 52 63 69.5 48q35 19 71.5 26.5T391 638h9q8 0 16-1v30q-10 1-18 1h-11q-51 0-92-8.5T216 631q-41-21-74.5-53t-57-70.5-36.5-83T35 333q0-63 21-118.5t59-99T205 43 320 4v-70q60-6 60-45 0-23-17-33.5T308-158v-26q23 0 35 1.5t24 6.5q20 8 32 25.5t12 40.5q0 53-61 69V1z"/><glyph glyph-name="Egrave" unicode="È" horiz-adv-x="427" d="M385 667H133q-18 0-28-1.5T90 659t-6-16.5-1-30.5V58q0-21 1-33t5.5-17.5 15-6.5T133 0h250v30H115v318h253v30H115v259h270v30zm-96 69l-96 114-29-13 98-116z"/><glyph glyph-name="Eacute" unicode="É" horiz-adv-x="427" d="M385 667H133q-18 0-28-1.5T90 659t-6-16.5-1-30.5V58q0-21 1-33t5.5-17.5 15-6.5T133 0h250v30H115v318h253v30H115v259h270v30zm-220 69l27-15 98 116-29 13z"/><glyph glyph-name="Ecircumflex" unicode="Ê" horiz-adv-x="427" d="M386 667H134q-18 0-28-1.5T91 659t-6-16.5-1-30.5V58q0-21 1-33t5.5-17.5 15-6.5T134 0h250v30H116v318h253v30H116v259h270v30zm-10 73l-125 94q-11 8-15.5 11t-7.5 3-7.5-2.5T206 836L78 740l22-21 129 94 126-94z"/><glyph glyph-name="Edieresis" unicode="Ë" horiz-adv-x="427" d="M385 667H133q-18 0-28-1.5T90 659t-6-16.5-1-30.5V58q0-21 1-33t5.5-17.5 15-6.5T133 0h250v30H115v318h253v30H115v259h270v30zM141 799q-11 0-18.5-7.5T115 773t7.5-18.5T141 747t18.5 7.5T167 773t-7.5 18.5T141 799zm172 0q-11 0-18.5-7.5T287 773t7.5-18.5T313 747t18.5 7.5T339 773t-7.5 18.5T313 799z"/><glyph glyph-name="Igrave" unicode="Ì" horiz-adv-x="199" d="M115 667H83V0h32v667zm46 69L65 850l-29-13 98-116z"/><glyph glyph-name="Iacute" unicode="Í" horiz-adv-x="199" d="M115 667H83V0h32v667zm-78 69l27-15 98 116-29 13z"/><glyph glyph-name="Icircumflex" unicode="Î" horiz-adv-x="199" d="M115 667H83V0h32v667zm133 73l-125 94q-11 8-15.5 11t-7.5 3-7.5-2.5T78 836l-128-96 22-21 129 94 126-94z"/><glyph glyph-name="Idieresis" unicode="Ï" horiz-adv-x="199" d="M115 667H83V0h32v667zM47 799q-11 0-18.5-7.5T21 773t7.5-18.5T47 747t18.5 7.5T73 773t-7.5 18.5T47 799zm105 0q-11 0-18.5-7.5T126 773t7.5-18.5T152 747t18.5 7.5T178 773t-7.5 18.5T152 799z"/><glyph glyph-name="Eth" unicode="Ð" horiz-adv-x="520" d="M84 346V26l.5-7 1.5-4q4-8 12.5-11.5T124 0q32 0 52 1.5T213 6q60 11 110 40.5t86 72.5 56 98 20 117q0 53-15 102t-43.5 89.5T358 597t-89 49q-16 6-30.5 10t-30 6.5-33 3.5-39.5 1h-8q-18 0-26.5-2T88 655q-2-2-2.5-4t-1-7-.5-15V376H17v-30h67zm32 0h124v30H116v260q9 1 16 1h12q64 0 120.5-23.5T363 549t66-96.5T453 334q0-64-24-119.5T363 118t-98.5-64.5T144 30h-12l-16 1v315z"/><glyph glyph-name="Ntilde" unicode="Ñ" horiz-adv-x="600" d="M516 667h-32V61L131 643q-14 22-18 26.5t-12 4.5q-14 0-17-14-1-5-1-10V0h32v609L465 33q8-13 12.5-20t8-10.5T492-2t7-1q10 0 13.5 8.5T516 40v627zm-345 71q28 24 41 31.5t28 7.5q12 0 21.5-4t34.5-18q37-22 62-22 41 0 86 48l-16 25-11-10q-19-17-31-23.5t-27-6.5q-6 0-11 .5t-10.5 3-14 7T301 789q-34 20-61 20-21 0-39.5-10.5T155 761z"/><glyph glyph-name="Ograve" unicode="Ò" horiz-adv-x="756" d="M382 678q-73 0-136-27t-110-73.5T62 468 35 333q0-71 27-134t73.5-109.5T245 16t134-27q70 0 132.5 27t109 73.5 74 108.5T722 329q0 73-26.5 137t-72 111T516 651t-134 27zm-1-30q54 0 107.5-20.5T583 570q107-95 107-241 0-63-25-119t-67.5-98.5-99-67.5T379 19q-64 0-121 25t-99.5 67.5-67 99.5T67 333q0 66 24.5 123t67 100 99.5 67.5T381 648zm60 88l-96 114-29-13 98-116z"/><glyph glyph-name="Oacute" unicode="Ó" horiz-adv-x="756" d="M382 678q-73 0-136-27t-110-73.5T62 468 35 333q0-71 27-134t73.5-109.5T245 16t134-27q70 0 132.5 27t109 73.5 74 108.5T722 329q0 73-26.5 137t-72 111T516 651t-134 27zm-1-30q54 0 107.5-20.5T583 570q107-95 107-241 0-63-25-119t-67.5-98.5-99-67.5T379 19q-64 0-121 25t-99.5 67.5-67 99.5T67 333q0 66 24.5 123t67 100 99.5 67.5T381 648zm-64 88l27-15 98 116-29 13z"/><glyph glyph-name="Ocircumflex" unicode="Ô" horiz-adv-x="756" d="M382 678q-73 0-136-27t-110-73.5T62 468 35 333q0-71 27-134t73.5-109.5T245 16t134-27q70 0 132.5 27t109 73.5 74 108.5T722 329q0 73-26.5 137t-72 111T516 651t-134 27zm-1-30q54 0 107.5-20.5T583 570q107-95 107-241 0-63-25-119t-67.5-98.5-99-67.5T379 19q-64 0-121 25t-99.5 67.5-67 99.5T67 333q0 66 24.5 123t67 100 99.5 67.5T381 648zm146 92l-125 94q-11 8-15.5 11t-7.5 3-7.5-2.5T357 836l-128-96 22-21 129 94 126-94z"/><glyph glyph-name="Otilde" unicode="Õ" horiz-adv-x="756" d="M382 678q-73 0-136-27t-110-73.5T62 468 35 333q0-71 27-134t73.5-109.5T245 16t134-27q70 0 132.5 27t109 73.5 74 108.5T722 329q0 73-26.5 137t-72 111T516 651t-134 27zm-1-30q54 0 107.5-20.5T583 570q107-95 107-241 0-63-25-119t-67.5-98.5-99-67.5T379 19q-64 0-121 25t-99.5 67.5-67 99.5T67 333q0 66 24.5 123t67 100 99.5 67.5T381 648zm-131 90q28 24 41 31.5t28 7.5q12 0 21.5-4t34.5-18q37-22 62-22 41 0 86 48l-16 25-11-10q-19-17-31-23.5t-27-6.5q-6 0-11 .5t-10.5 3-14 7T380 789q-34 20-61 20-21 0-39.5-10.5T234 761z"/><glyph glyph-name="Odieresis" unicode="Ö" horiz-adv-x="756" d="M382 678q-73 0-136-27t-110-73.5T62 468 35 333q0-71 27-134t73.5-109.5T245 16t134-27q70 0 132.5 27t109 73.5 74 108.5T722 329q0 73-26.5 137t-72 111T516 651t-134 27zm-1-30q54 0 107.5-20.5T583 570q107-95 107-241 0-63-25-119t-67.5-98.5-99-67.5T379 19q-64 0-121 25t-99.5 67.5-67 99.5T67 333q0 66 24.5 123t67 100 99.5 67.5T381 648zm-88 151q-11 0-18.5-7.5T267 773t7.5-18.5T293 747t18.5 7.5T319 773t-7.5 18.5T293 799zm172 0q-11 0-18.5-7.5T439 773t7.5-18.5T465 747t18.5 7.5T491 773t-7.5 18.5T465 799z"/><glyph glyph-name="multiply" unicode="×" d="M86 510l-17-16 164-164L69 165l17-16 164 164 164-164 16 16-164 164 165 165-17 16-164-164z"/><glyph glyph-name="Oslash" unicode="Ø" horiz-adv-x="756" d="M723 657l-21 22-91-90q-55 46-111 67.5T378 678q-72 0-134.5-27t-109-73.5-73-109.5T35 332q0-67 21-122t69-109L37 11 57-9l90 89q52-47 107.5-69T376-11q72 0 135.5 27t110 73.5 73.5 110T722 335q0 66-21.5 121.5T633 566zM610 544q42-51 61-100t19-108q0-65-24.5-122.5t-67-101-99-68.5T379 19q-115 0-210 83zM148 124q-81 90-81 210 0 66 24.5 123.5T158 557t99.5 66.5T381 648q61 0 110-19.5t98-63.5z"/><glyph glyph-name="Ugrave" unicode="Ù" horiz-adv-x="579" d="M506 667h-32V251q0-26-1.5-45.5T468 170t-8-29.5-12-26.5q-23-43-66.5-69T290 19q-47 0-89.5 24.5T134 110q-16 28-22.5 60.5T105 255v412H73V253q0-31 1.5-54t5-41 9-33T103 95q27-48 78.5-77T290-11t106.5 28.5T474 94q18 31 25 65t7 92v416zm-154 69l-96 114-29-13 98-116z"/><glyph glyph-name="Uacute" unicode="Ú" horiz-adv-x="579" d="M506 667h-32V251q0-26-1.5-45.5T468 170t-8-29.5-12-26.5q-23-43-66.5-69T290 19q-47 0-89.5 24.5T134 110q-16 28-22.5 60.5T105 255v412H73V253q0-31 1.5-54t5-41 9-33T103 95q27-48 78.5-77T290-11t106.5 28.5T474 94q18 31 25 65t7 92v416zm-278 69l27-15 98 116-29 13z"/><glyph glyph-name="Ucircumflex" unicode="Û" horiz-adv-x="579" d="M506 667h-32V251q0-26-1.5-45.5T468 170t-8-29.5-12-26.5q-23-43-66.5-69T290 19q-47 0-89.5 24.5T134 110q-16 28-22.5 60.5T105 255v412H73V253q0-31 1.5-54t5-41 9-33T103 95q27-48 78.5-77T290-11t106.5 28.5T474 94q18 31 25 65t7 92v416zm-67 73l-125 94q-11 8-15.5 11t-7.5 3-7.5-2.5T269 836l-128-96 22-21 129 94 126-94z"/><glyph glyph-name="Udieresis" unicode="Ü" horiz-adv-x="579" d="M506 667h-32V251q0-26-1.5-45.5T468 170t-8-29.5-12-26.5q-23-43-66.5-69T290 19q-47 0-89.5 24.5T134 110q-16 28-22.5 60.5T105 255v412H73V253q0-31 1.5-54t5-41 9-33T103 95q27-48 78.5-77T290-11t106.5 28.5T474 94q18 31 25 65t7 92v416zM204 799q-11 0-18.5-7.5T178 773t7.5-18.5T204 747t18.5 7.5T230 773t-7.5 18.5T204 799zm172 0q-11 0-18.5-7.5T350 773t7.5-18.5T376 747t18.5 7.5T402 773t-7.5 18.5T376 799z"/><glyph glyph-name="Yacute" unicode="Ý" horiz-adv-x="437" d="M430 667h-35L229 326 43 667H8l205-374V0h32v293zm-273 69l27-15 98 116-29 13z"/><glyph glyph-name="Thorn" unicode="Þ" horiz-adv-x="410" d="M115 174h44q52 0 82 6t56 20q40 23 63 64t23 90q0 84-64 136-29 24-59.5 33.5T179 533h-64v134H83V0h32v174zm0 329h63q41 0 68.5-8t51.5-28q26-21 39.5-50t13.5-63q0-37-16.5-69.5T289 232q-13-9-25-14.5t-28-8.5-37-4-52-1h-32v299z"/><glyph glyph-name="germandbls" unicode="ß" horiz-adv-x="535" d="M65 0h31v479q0 38 4 62.5t14 42.5q16 29 48.5 45.5T238 646q62 0 100-29t38-77q0-36-21.5-63T297 440q-13-3-24-5t-26-3.5-36-2-53-.5v-29h60q35 0 60-1.5t44.5-5.5 35.5-11 32-17q38-25 60-67t22-90q0-39-15-73.5T416.5 74 357 33t-73-15q-16 0-30 2t-28 7-30 13-36 20V23q20-10 36.5-16.5t31-10.5T256-9.5t30-1.5q45 0 84.5 17t69 47 46.5 70 17 86q0 48-20 90.5T426 372q-25 21-49.5 31.5T312 421q95 32 95 120 0 29-13 53.5T358.5 637t-54 28-68.5 10q-51 0-90.5-21T86 596q-6-11-10-22.5t-6.5-25T66 518t-1-40V0z"/><glyph glyph-name="agrave" unicode="à" horiz-adv-x="531" d="M443 0h31v177q0 29-1.5 50.5t-5 39-10 32.5-15.5 31q-29 50-79.5 78.5T252 437q-46 0-86.5-17.5T95 372t-47-70.5T31 214t17-87.5T95 56t70-47 86-17q125 0 192 110V0zM254 408q39 0 73.5-15.5t60-42 40-62.5 14.5-77q0-39-15-73.5T386 77t-60.5-41T252 21t-73.5 15T118 77.5 77 139t-15 75 15 75.5 41 61.5 61 41.5 75 15.5zm46 81l-38 140h-31l39-142z"/><glyph glyph-name="aacute" unicode="á" horiz-adv-x="531" d="M443 0h31v177q0 29-1.5 50.5t-5 39-10 32.5-15.5 31q-29 50-79.5 78.5T252 437q-46 0-86.5-17.5T95 372t-47-70.5T31 214t17-87.5T95 56t70-47 86-17q125 0 192 110V0zM254 408q39 0 73.5-15.5t60-42 40-62.5 14.5-77q0-39-15-73.5T386 77t-60.5-41T252 21t-73.5 15T118 77.5 77 139t-15 75 15 75.5 41 61.5 61 41.5 75 15.5zm-43 81l30-2 39 142h-31z"/><glyph glyph-name="acircumflex" unicode="â" horiz-adv-x="531" d="M443 0h31v177q0 29-1.5 50.5t-5 39-10 32.5-15.5 31q-29 50-79.5 78.5T252 437q-46 0-86.5-17.5T95 372t-47-70.5T31 214t17-87.5T95 56t70-47 86-17q125 0 192 110V0zM254 408q39 0 73.5-15.5t60-42 40-62.5 14.5-77q0-39-15-73.5T386 77t-60.5-41T252 21t-73.5 15T118 77.5 77 139t-15 75 15 75.5 41 61.5 61 41.5 75 15.5zm137 113l-122 91q-10 8-14.5 10.5T247 625q-6 0-21-12l-125-92 22-21 124 91 123-91z"/><glyph glyph-name="atilde" unicode="ã" horiz-adv-x="531" d="M443 0h31v177q0 29-1.5 50.5t-5 39-10 32.5-15.5 31q-29 50-79.5 78.5T252 437q-46 0-86.5-17.5T95 372t-47-70.5T31 214t17-87.5T95 56t70-47 86-17q125 0 192 110V0zM254 408q39 0 73.5-15.5t60-42 40-62.5 14.5-77q0-39-15-73.5T386 77t-60.5-41T252 21t-73.5 15T118 77.5 77 139t-15 75 15 75.5 41 61.5 61 41.5 75 15.5zM121 525q26 23 39 30.5t27 7.5q12 0 21.5-4t33.5-18q37-21 60-21 41 0 84 47l-16 24-5-5-6-5q-18-17-30-23t-26-6q-6 0-10.5.5t-10.5 3-14 6.5-21 12q-34 20-60 20-20 0-38-10.5T105 547z"/><glyph glyph-name="adieresis" unicode="ä" horiz-adv-x="531" d="M443 0h31v177q0 29-1.5 50.5t-5 39-10 32.5-15.5 31q-29 50-79.5 78.5T252 437q-46 0-86.5-17.5T95 372t-47-70.5T31 214t17-87.5T95 56t70-47 86-17q125 0 192 110V0zM254 408q39 0 73.5-15.5t60-42 40-62.5 14.5-77q0-39-15-73.5T386 77t-60.5-41T252 21t-73.5 15T118 77.5 77 139t-15 75 15 75.5 41 61.5 61 41.5 75 15.5zm-77 175q-10 0-17.5-7.5T152 558q0-11 7-18t18-7 18 7 7 18-7 18-18 7zm153 0q-10 0-17.5-7.5T305 558q0-11 7-18t18-7 18 7 7 18-7 18-18 7z"/><glyph glyph-name="aring" unicode="å" horiz-adv-x="531" d="M443 0h31v177q0 29-1.5 50.5t-5 39-10 32.5-15.5 31q-29 50-79.5 78.5T252 437q-46 0-86.5-17.5T95 372t-47-70.5T31 214t17-87.5T95 56t70-47 86-17q125 0 192 110V0zM254 408q39 0 73.5-15.5t60-42 40-62.5 14.5-77q0-39-15-73.5T386 77t-60.5-41T252 21t-73.5 15T118 77.5 77 139t-15 75 15 75.5 41 61.5 61 41.5 75 15.5zm-1 243q-34 0-59-25t-25-59 25-59 59-25q16 0 31.5 7t27 18 18.5 26 7 31q0 18-7 33.5t-18.5 27T285 644t-32 7zm0-29q23 0 38.5-16t15.5-39-16-39-39-16-38 16-15 40q0 23 15.5 38.5T253 622z"/><glyph glyph-name="ae" unicode="æ" horiz-adv-x="920" d="M853 167q-8-31-25.5-58T785 62.5 729.5 32 667 21q-51 0-95.5 26T502 118q-11 20-17 39.5t-8 45.5h387q26 0 26 26 0 20-8 46t-21 49q-31 53-82 82.5T668 436t-104.5-24.5T476 328v101h-31V328q-39 57-84.5 82.5T255 436q-47 0-87.5-17.5T97 371t-47.5-70.5T32 214t17-86.5T96 57t70.5-47.5T253-8q63 0 112 28.5t80 82.5V0h31v101Q549-8 666-8q39 0 75 13t65 36 49.5 55.5T884 167h-31zm-377 65q3 37 19.5 69t42 55.5 59 37T667 407q50 0 94.5-25t69.5-67q10-17 16-35.5t12-47.5H476zM255 407q39 0 73.5-15.5t61-42 41.5-62 15-75.5q0-39-15.5-73.5t-42-60.5-61-41.5T254 21q-40 0-75 15t-60.5 41.5T78 139t-15 76q0 40 15 75.5t40.5 61T179 392t76 15z"/><glyph glyph-name="ccedilla" unicode="ç" horiz-adv-x="336" d="M240 2q14-1 27.5-1.5T292 0h15v30q-8-1-17-1h-10q-42 0-72 6t-53 19q-43 24-67.5 66.5T63 213q0 59 32 106t86 66q20 7 42.5 10t52.5 3h31v29h-23q-42 0-70-4t-53-15q-59-25-94-78T32 212q0-40 13-74.5t36-62T137 30t74-25v-69q58-6 58-43 0-23-16-33.5T200-153v-26q22 0 33.5 1.5T256-171q20 8 31.5 25t11.5 39q0 25-15 42.5T240-40V2z"/><glyph glyph-name="egrave" unicode="è" horiz-adv-x="509" d="M440 165q-20-66-69.5-105T255 21q-38 0-72 14t-60 38.5T81 131t-18 71h375q26 0 33 4t7 19q0 17-7 43t-18 47q-28 57-81.5 89.5T255 437q-46 0-86.5-17.5t-71-48-48-71T32 214t17.5-86.5T97 57t70.5-47.5T254-8q80 0 137 45.5T471 165h-31zM64 231q3 37 19.5 69.5t42 56.5 58.5 37.5 70 13.5 70.5-13.5T384 357t42.5-56.5T446 231H64zm225 258l-38 140h-31l39-142z"/><glyph glyph-name="eacute" unicode="é" horiz-adv-x="509" d="M440 165q-20-66-69.5-105T255 21q-38 0-72 14t-60 38.5T81 131t-18 71h375q26 0 33 4t7 19q0 17-7 43t-18 47q-28 57-81.5 89.5T255 437q-46 0-86.5-17.5t-71-48-48-71T32 214t17.5-86.5T97 57t70.5-47.5T254-8q80 0 137 45.5T471 165h-31zM64 231q3 37 19.5 69.5t42 56.5 58.5 37.5 70 13.5 70.5-13.5T384 357t42.5-56.5T446 231H64zm156 258l30-2 39 142h-31z"/><glyph glyph-name="ecircumflex" unicode="ê" horiz-adv-x="509" d="M440 165q-20-66-69.5-105T255 21q-38 0-72 14t-60 38.5T81 131t-18 71h375q26 0 33 4t7 19q0 17-7 43t-18 47q-28 57-81.5 89.5T255 437q-46 0-86.5-17.5t-71-48-48-71T32 214t17.5-86.5T97 57t70.5-47.5T254-8q80 0 137 45.5T471 165h-31zM64 231q3 37 19.5 69.5t42 56.5 58.5 37.5 70 13.5 70.5-13.5T384 357t42.5-56.5T446 231H64zm336 290l-122 91q-10 8-14.5 10.5T256 625q-6 0-21-12l-125-92 22-21 124 91 123-91z"/><glyph glyph-name="edieresis" unicode="ë" horiz-adv-x="509" d="M440 165q-20-66-69.5-105T255 21q-38 0-72 14t-60 38.5T81 131t-18 71h375q26 0 33 4t7 19q0 17-7 43t-18 47q-28 57-81.5 89.5T255 437q-46 0-86.5-17.5t-71-48-48-71T32 214t17.5-86.5T97 57t70.5-47.5T254-8q80 0 137 45.5T471 165h-31zM64 231q3 37 19.5 69.5t42 56.5 58.5 37.5 70 13.5 70.5-13.5T384 357t42.5-56.5T446 231H64zm114 352q-10 0-17.5-7.5T153 558q0-11 7-18t18-7 18 7 7 18-7 18-18 7zm153 0q-10 0-17.5-7.5T306 558q0-11 7-18t18-7 18 7 7 18-7 18-18 7z"/><glyph glyph-name="igrave" unicode="ì" horiz-adv-x="169" d="M100 427H69V0h31v427zm19 62L81 629H50l39-142z"/><glyph glyph-name="iacute" unicode="í" horiz-adv-x="169" d="M100 427H69V0h31v427zm-50 62l30-2 39 142H88z"/><glyph glyph-name="icircumflex" unicode="î" horiz-adv-x="169" d="M101 427H70V0h31v427zm129 94l-122 91q-10 8-14.5 10.5T86 625q-6 0-21-12l-125-92 22-21 124 91 123-91z"/><glyph glyph-name="idieresis" unicode="ï" horiz-adv-x="169" d="M100 427H69V0h31v427zM41 583q-10 0-17.5-7.5T16 558q0-11 7-18t18-7 18 7 7 18-7 18-18 7zm87 0q-10 0-17.5-7.5T103 558q0-11 7-18t18-7 18 7 7 18-7 18-18 7z"/><glyph glyph-name="eth" unicode="ð" horiz-adv-x="506" d="M365 406q-29 17-55 24t-57 7q-46 0-86.5-17.5T96 372t-47-70.5T32 215q0-47 17-87.5T96 57t70.5-47.5T253-8t86.5 17.5T410 57t47 70.5 17 87.5q0 31-6.5 60.5t-22 62.5-42 72-65.5 90l-67 87 71 47-18 27-73-47-57 74-26-20 55-72-62-41 19-27 62 42zm-112 2q39 0 73-15.5t60-41.5 41-61 15-75q0-41-15-76.5T386.5 77t-61-41T250 21q-38 0-72 15.5t-59.5 42-40 61.5T64 215t15 75 40.5 61 60 41.5T253 408z"/><glyph glyph-name="ntilde" unicode="ñ" horiz-adv-x="446" d="M381 0v235q0 25-1 44t-4 33.5-8 27-13 24.5q-20 34-55 53.5T224 437q-42 0-78.5-20.5T89 362q-13-22-18.5-49.5T65 243V0h31v238q0 41 4.5 64.5T118 347q16 29 44 45t61 16q35 0 63.5-17t44.5-47q6-11 9.5-20.5T346 302t3-27.5 1-36.5V0h31zM99 525q26 23 39 30.5t27 7.5q12 0 21.5-4t33.5-18q37-21 60-21 41 0 84 47l-16 24-5-5-6-5q-18-17-30-23t-26-6q-6 0-10.5.5t-10.5 3-14 6.5-21 12q-34 20-60 20-20 0-38-10.5T83 547z"/><glyph glyph-name="ograve" unicode="ò" horiz-adv-x="506" d="M253 437q-46 0-86.5-17.5T96 372t-47-71-17-87 17-86.5T95.5 57t69-47.5T249-8q47 0 88 17t71.5 47 48 70 17.5 87-17 88-47 71-70.5 47.5T253 437zm0-29q39 0 73.5-15.5t60-41.5 40.5-62 15-76-15-75-41-61-61-41-75-15q-38 0-71.5 15.5t-59 42T79 140t-15 74q0 40 15 75.5t40.5 61.5 60 41.5T253 408zm35 81l-38 140h-31l39-142z"/><glyph glyph-name="oacute" unicode="ó" horiz-adv-x="506" d="M253 437q-46 0-86.5-17.5T96 372t-47-71-17-87 17-86.5T95.5 57t69-47.5T249-8q47 0 88 17t71.5 47 48 70 17.5 87-17 88-47 71-70.5 47.5T253 437zm0-29q39 0 73.5-15.5t60-41.5 40.5-62 15-76-15-75-41-61-61-41-75-15q-38 0-71.5 15.5t-59 42T79 140t-15 74q0 40 15 75.5t40.5 61.5 60 41.5T253 408zm-34 81l30-2 39 142h-31z"/><glyph glyph-name="ocircumflex" unicode="ô" horiz-adv-x="506" d="M253 437q-46 0-86.5-17.5T96 372t-47-71-17-87 17-86.5T95.5 57t69-47.5T249-8q47 0 88 17t71.5 47 48 70 17.5 87-17 88-47 71-70.5 47.5T253 437zm0-29q39 0 73.5-15.5t60-41.5 40.5-62 15-76-15-75-41-61-61-41-75-15q-38 0-71.5 15.5t-59 42T79 140t-15 74q0 40 15 75.5t40.5 61.5 60 41.5T253 408zm145 113l-122 91q-10 8-14.5 10.5T254 625q-6 0-21-12l-125-92 22-21 124 91 123-91z"/><glyph glyph-name="otilde" unicode="õ" horiz-adv-x="506" d="M253 437q-46 0-86.5-17.5T96 372t-47-71-17-87 17-86.5T95.5 57t69-47.5T249-8q47 0 88 17t71.5 47 48 70 17.5 87-17 88-47 71-70.5 47.5T253 437zm0-29q39 0 73.5-15.5t60-41.5 40.5-62 15-76-15-75-41-61-61-41-75-15q-38 0-71.5 15.5t-59 42T79 140t-15 74q0 40 15 75.5t40.5 61.5 60 41.5T253 408zM129 525q26 23 39 30.5t27 7.5q12 0 21.5-4t33.5-18q37-21 60-21 41 0 84 47l-16 24-5-5-6-5q-18-17-30-23t-26-6q-6 0-10.5.5t-10.5 3-14 6.5-21 12q-34 20-60 20-20 0-38-10.5T113 547z"/><glyph glyph-name="odieresis" unicode="ö" horiz-adv-x="506" d="M253 437q-46 0-86.5-17.5T96 372t-47-71-17-87 17-86.5T95.5 57t69-47.5T249-8q47 0 88 17t71.5 47 48 70 17.5 87-17 88-47 71-70.5 47.5T253 437zm0-29q39 0 73.5-15.5t60-41.5 40.5-62 15-76-15-75-41-61-61-41-75-15q-38 0-71.5 15.5t-59 42T79 140t-15 74q0 40 15 75.5t40.5 61.5 60 41.5T253 408zm-76 175q-10 0-17.5-7.5T152 558q0-11 7-18t18-7 18 7 7 18-7 18-18 7zm153 0q-10 0-17.5-7.5T305 558q0-11 7-18t18-7 18 7 7 18-7 18-18 7z"/><glyph glyph-name="divide" unicode="÷" d="M251 549q-12 0-20.5-8.5T222 520q0-11 8.5-19.5T251 492q11 0 19.5 8.5T279 520q0 12-8.5 20.5T251 549zm0-383q-12 0-20.5-8.5T222 138q0-12 8.5-20.5T251 109q11 0 19.5 8.5T279 138q0 11-8.5 19.5T251 166zM65 341v-23h371v23H65z"/><glyph glyph-name="oslash" unicode="ø" horiz-adv-x="506" d="M479 420l-22 21-58-58q-66 54-145 54-47 0-87.5-17.5T96 372t-47-70.5T32 215q0-42 13-78t42-70L28 7l23-21 58 59Q175-8 254-8q46 0 86.5 17.5T411 57t47 70.5 17 86.5q0 42-13 77.5T421 361zm-81-82q45-55 45-124 0-40-15-75t-41-61.5T327 36t-73-15q-34 0-63.5 11T131 67zM110 89q-24 30-35 60.5T64 215q0 40 15 75t41 61 60 41.5 73 15.5q67 0 124-48z"/><glyph glyph-name="ugrave" unicode="ù" horiz-adv-x="446" d="M65 427V192q0-26 1-44.5t4-33 8-27T91 63q20-34 55-53.5T222-10q42 0 78.5 20.5T357 65q13 22 18.5 49.5T381 184v243h-31V189q0-41-4.5-64.5T328 80q-16-29-44-45t-61-16q-35 0-63.5 17T115 83q-6 10-9.5 20t-5.5 22-3 27.5-1 36.5v238H65zm193 62l-38 140h-31l39-142z"/><glyph glyph-name="uacute" unicode="ú" horiz-adv-x="446" d="M65 427V192q0-26 1-44.5t4-33 8-27T91 63q20-34 55-53.5T222-10q42 0 78.5 20.5T357 65q13 22 18.5 49.5T381 184v243h-31V189q0-41-4.5-64.5T328 80q-16-29-44-45t-61-16q-35 0-63.5 17T115 83q-6 10-9.5 20t-5.5 22-3 27.5-1 36.5v238H65zm124 62l30-2 39 142h-31z"/><glyph glyph-name="ucircumflex" unicode="û" horiz-adv-x="446" d="M65 427V192q0-26 1-44.5t4-33 8-27T91 63q20-34 55-53.5T222-10q42 0 78.5 20.5T357 65q13 22 18.5 49.5T381 184v243h-31V189q0-41-4.5-64.5T328 80q-16-29-44-45t-61-16q-35 0-63.5 17T115 83q-6 10-9.5 20t-5.5 22-3 27.5-1 36.5v238H65zm303 94l-122 91q-10 8-14.5 10.5T224 625q-6 0-21-12L78 521l22-21 124 91 123-91z"/><glyph glyph-name="udieresis" unicode="ü" horiz-adv-x="446" d="M65 427V192q0-26 1-44.5t4-33 8-27T91 63q20-34 55-53.5T222-10q42 0 78.5 20.5T357 65q13 22 18.5 49.5T381 184v243h-31V189q0-41-4.5-64.5T328 80q-16-29-44-45t-61-16q-35 0-63.5 17T115 83q-6 10-9.5 20t-5.5 22-3 27.5-1 36.5v238H65zm81 156q-10 0-17.5-7.5T121 558q0-11 7-18t18-7 18 7 7 18-7 18-18 7zm153 0q-10 0-17.5-7.5T274 558q0-11 7-18t18-7 18 7 7 18-7 18-18 7z"/><glyph glyph-name="yacute" unicode="ý" horiz-adv-x="472" d="M401 427h-31V191q0-41-3.5-64T354 86q-14-29-45.5-48T243 19q-35 0-65.5 19.5T133 90q-8 20-11 41t-3 61v235H88V192q0-26 .5-42t1.5-27 3.5-20 7.5-20q17-42 56-67.5T244-10q19 0 34.5 3t30 10.5 29.5 20T370 54v-84q0-24-1-41.5t-3-31-5-24.5-8-23q-15-34-47-54t-72-20q-71 0-113 59-14 19-19 36t-6 46H65q2-34 8.5-53.5T95-179q51-74 139-74 45 0 84 22.5t59 60.5q7 13 11.5 26.5t7.5 29 4 36 1 48.5v457zm-200 62l30-2 39 142h-31z"/><glyph glyph-name="thorn" unicode="þ" horiz-adv-x="531" d="M88 102Q155-8 280-8q46 0 86 17t70 47 47 70.5 17 87.5q0 46-17 87t-47 71-70 47.5-86 17.5q-35 0-68.5-10.5T149 396q-20-14-32.5-27.5T88 327v340H57v-905h31v340zm191 306q39 0 73.5-15.5t60.5-42 41-61.5 15-75-15-75-41-61.5T352 36t-74-15q-40 0-74.5 15.5t-60 42-40 62T89 217q0 39 15 73.5t41 61 60.5 41.5 73.5 15z"/><glyph glyph-name="ydieresis" unicode="ÿ" horiz-adv-x="472" d="M401 427h-31V191q0-41-3.5-64T354 86q-14-29-45.5-48T243 19q-35 0-65.5 19.5T133 90q-8 20-11 41t-3 61v235H88V192q0-26 .5-42t1.5-27 3.5-20 7.5-20q17-42 56-67.5T244-10q19 0 34.5 3t30 10.5 29.5 20T370 54v-84q0-24-1-41.5t-3-31-5-24.5-8-23q-15-34-47-54t-72-20q-71 0-113 59-14 19-19 36t-6 46H65q2-34 8.5-53.5T95-179q51-74 139-74 45 0 84 22.5t59 60.5q7 13 11.5 26.5t7.5 29 4 36 1 48.5v457zM159 583q-10 0-17.5-7.5T134 558q0-11 7-18t18-7 18 7 7 18-7 18-18 7zm153 0q-10 0-17.5-7.5T287 558q0-11 7-18t18-7 18 7 7 18-7 18-18 7z"/><glyph glyph-name="OE" unicode="Œ" horiz-adv-x="676" d="M635 667H393q-52 0-87.5-6.5T235 638q-45-20-81.5-51.5t-63-72-41-87T35 333t14.5-94.5 41-86.5 63-72T235 29q35-16 71-22.5T393 0h242v30H368v318h251v30H368v259h267v30zM336 33q-25 1-45 5.5T246 54q-41 19-74.5 47.5t-56.5 65T79.5 245 67 333q0 59 22 113t58.5 95.5T233 608t103 26V33z"/><glyph glyph-name="oe" unicode="œ" horiz-adv-x="920" d="M851 165q-20-66-69.5-105T665 21q-38 0-71.5 14T534 73.5 492 131t-18 71h374q27 0 33.5 4t6.5 19q0 17-7 43t-18 47q-28 57-81 89.5T666 437q-70 0-124-36.5T459 297q-28 66-82.5 103T253 437q-46 0-86.5-17.5T96 372t-47-71-17-87q0-47 17-87.5T96 56t70.5-47T253-8q34 0 66 10t59 28 47.5 44 33.5 58q29-68 82.5-104T665-8q80 0 137 45.5T882 165h-31zM253 408q39 0 74-15.5t60.5-42T428 288t15-76q0-39-15-74t-41.5-61T325 36t-75-15q-38 0-71.5 15.5t-59 42T79 140t-15 74q0 40 15 75t41 61.5 60 42 73 15.5zm222-177q3 37 19.5 69.5t42 56.5 58.5 37.5 70 13.5 70.5-13.5T795 357t42.5-56.5T857 231H475z"/><glyph glyph-name="Scaron" unicode="Š" horiz-adv-x="436" d="M358 654q-22 8-37.5 13t-28 8-25 4-28.5 1q-45 0-81.5-13T95 630.5t-40-57T41 500q0-66 40-114 17-20 40.5-32.5T191 327q26-8 41.5-13t24.5-8 14.5-5 11.5-4q35-15 57-49.5t22-76.5q0-33-12.5-60.5t-34.5-48-52.5-32T197 19q-32 0-65.5 8.5T47 56V22Q84 6 124.5-2.5T203-11q40 0 75 14t60.5 38.5 40.5 58 15 71.5q0 35-12 65.5T347 291q-17 18-40.5 30T240 345q-23 7-37 11.5t-24 8-17.5 6.5-16.5 7q-34 17-53 49t-19 73q0 68 44.5 109T237 650q15 0 27-1t25-4 29-9 40-16v34zM69 826l125-94q19-13 23-13 7 0 22 12l128 95-22 22-128-94-127 94z"/><glyph glyph-name="scaron" unicode="š" horiz-adv-x="318" d="M255 418q-25 11-42 15t-38 4q-28 0-51.5-8.5t-41-23.5-27-35-9.5-44q0-38 19.5-63t61.5-44q32-14 50.5-22.5T200 185q41-25 41-71 0-19-7.5-36T213 48.5t-30.5-20T146 21q-22 0-42.5 6.5T45 51V18Q74 3 94-2.5T139-8q58 0 95.5 35t37.5 90q0 22-5.5 39t-19 31.5-37 27.5-58.5 27q-41 17-58 36t-17 49q0 16 7.5 31t20 26 29 17.5T169 408q20 0 38.5-5t47.5-18v33zM14 604l121-91q19-13 23-13 5 0 21 11l125 93-22 21-124-91-123 91z"/><glyph glyph-name="Ydieresis" unicode="Ÿ" horiz-adv-x="601" d="M517 562v105h-32V562H115v105H83V562H17v-30h66V0h32v346h370V0h32v532h66v30h-66zm-402-30h370V376H115v156z"/><glyph glyph-name="florin" unicode="ƒ" horiz-adv-x="532" d="M418 459H301l17 96q13 76 38 106.5t73 30.5q11 0 22.5-1.5T479 686l5 25q-29 7-57 7-64 0-97-39-8-10-14-20t-11-24.5-9.5-35T286 549l-16-90H160l-5-23h111L166-133h31l100 569h117z"/><glyph glyph-name="circumflex" unicode="ˆ" d="M395 521l-122 91q-10 8-14.5 10.5T251 625q-6 0-21-12l-125-92 22-21 124 91 123-91z"/><glyph glyph-name="tilde" unicode="˜" d="M126 525q26 23 39 30.5t27 7.5q12 0 21.5-4t33.5-18q37-21 60-21 41 0 84 47l-16 24-5-5-6-5q-18-17-30-23t-26-6q-6 0-10.5.5t-10.5 3-14 6.5-21 12q-34 20-60 20-20 0-38-10.5T110 547z"/><glyph glyph-name="endash" unicode="–" horiz-adv-x="422" d="M369 228H53v-30h316v30z"/><glyph glyph-name="emdash" unicode="—" horiz-adv-x="499" d="M499 228H0v-30h499v30z"/><glyph glyph-name="quoteleft" unicode="‘" horiz-adv-x="164" d="M96 677l-24-52q-7-14-11-27t-4-20q0-13 7.5-21.5T83 548t18 7 7 17q0 17-21 25l26 80H96z"/><glyph glyph-name="quoteright" unicode="’" horiz-adv-x="164" d="M69 548l24 52q7 15 11 27.5t4 19.5q0 13-7.5 21.5T82 677t-18-7-7-17q0-18 21-24l-26-81h17z"/><glyph glyph-name="quotesinglbase" unicode="‚" horiz-adv-x="164" d="M69-80l24 52q7 14 11 27t4 20q0 13-7.5 21.5T82 49t-18-7-7-17Q57 6 78 0L52-80h17z"/><glyph glyph-name="quotedblleft" unicode="“" horiz-adv-x="270" d="M202 677l-24-52q-7-14-11-27t-4-20q0-13 7.5-21.5T189 548t18 7 7 17q0 19-21 25l26 80h-17zm-106 0l-24-52q-7-14-11-27t-4-20q0-13 7.5-21.5T83 548t18 7 7 17q0 17-21 25l26 80H96z"/><glyph glyph-name="quotedblright" unicode="”" horiz-adv-x="270" d="M69 548l24 52q7 15 11 27.5t4 19.5q0 13-7.5 21.5T82 677t-18-7-7-17q0-18 21-24l-26-81h17zm106 0l24 52q7 14 11 27t4 20q0 13-7.5 21.5T188 677t-18-7-7-17q0-18 21-24l-26-81h17z"/><glyph glyph-name="quotedblbase" unicode="„" horiz-adv-x="270" d="M69-84l24 52q7 14 11 27t4 20q0 13-7.5 21.5T82 45t-18-7-7-17Q57 2 78-4L52-84h17zm106 0l24 52q7 14 11 27t4 20q0 13-7.5 21.5T188 45t-18-7-7-17q0-18 21-25l-26-80h17z"/><glyph glyph-name="dagger" unicode="†" horiz-adv-x="430" d="M231 479h160v29H231v159h-31V508H40v-29h160V0h31v479z"/><glyph glyph-name="daggerdbl" unicode="‡" horiz-adv-x="430" d="M231 479h160v29H231v159h-31V508H40v-29h160V188H40v-29h160V0h31v159h160v29H231v291z"/><glyph glyph-name="bullet" unicode="•" horiz-adv-x="667" d="M336 477q-29 0-54.5-11T237 436.5t-30-44-11-54.5 11-54 29.5-43.5 44-29.5 54.5-11q28 0 53.5 11t44 29.5 29.5 44 11 54.5q0 28-11 53t-29.5 44-43.5 30-53 11z"/><glyph glyph-name="ellipsis" unicode="…" horiz-adv-x="515" d="M85 46q-11 0-18-7.5T60 20t7-18 18-7 18.5 7 7.5 18-7.5 18.5T85 46zm172 0q-11 0-18-7.5T232 20t7-18 18-7 18.5 7 7.5 18-7.5 18.5T257 46zm171 0q-11 0-18-7.5T403 20t7-18 18-7 18.5 7 7.5 18-7.5 18.5T428 46z"/><glyph glyph-name="perthousand" unicode="‰" horiz-adv-x="1136" d="M48 428q0-38 4-58.5T67 329q17-31 50-50t68-19q36 0 69 19t50 50q11 20 15 40.5t4 58.5v78q0 37-4 57.5T304 604q-17 31-50 50t-69 19q-35 0-68-19t-50-50q-11-20-15-40.5T48 506v-78zm244 1q0-35-3.5-54T275 339q-14-23-38.5-37T185 288q-26 0-50.5 14T96 339q-10 17-13.5 36T79 429v76q0 33 3.5 52T96 594q28 51 86 51 29 0 54-14t39-37q10-17 13.5-36t3.5-53v-76zm268 238h-33L244 0h32zm-79-506q0-38 4-58.5T500 62q17-31 50-50t68-19 68 19 50 50q11 20 15 40.5t4 58.5v78q0 37-4 57.5T736 337q-17 31-50 50t-68 19-68-19-50-50q-11-20-15-40.5t-4-57.5v-78zm243 1q0-34-3.5-53.5T707 72q-14-23-38.5-37T618 21t-50.5 14T529 72q-10 17-13.5 36.5T512 162v76q0 33 3.5 52t13.5 37q28 51 86 51 29 0 53.5-14t38.5-37q10-17 13.5-36t3.5-53v-76zm90-1q0-38 4-58.5T833 62q17-31 50-50t68-19q36 0 69 19t50 50q11 20 15 40.5t4 58.5v78q0 37-4 57.5t-15 40.5q-17 31-50 50t-69 19q-35 0-68-19t-50-50q-11-20-15-40.5t-4-57.5v-78zm244 1q0-35-3.5-54T1041 72q-14-23-38.5-37T951 21q-26 0-50.5 14T862 72q-10 17-13.5 36t-3.5 54v76q0 33 3.5 52t13.5 37q28 51 86 51 29 0 54-14t39-37q10-17 13.5-36t3.5-53v-76z"/><glyph glyph-name="guilsinglleft" unicode="‹" horiz-adv-x="232" d="M33 212L168 29l24 18L71 212l121 166-24 18z"/><glyph glyph-name="guilsinglright" unicode="›" horiz-adv-x="232" d="M199 213L64 396l-24-18 121-165L40 48l24-19z"/><glyph glyph-name="trademark" unicode="™" horiz-adv-x="607" d="M205 667H3v-29h86V287h30v351h86v29zm73-84l108-272q8-19 10.5-23t10.5-4 11.5 5 10.5 22l108 272V287h30v352q0 32-16 32-7 0-12-5.5T529 644L408 335 286 644q-7 17-10.5 21.5T264 670q-9 0-12.5-7t-3.5-24V287h30v296z"/><glyph glyph-name="periodcentered" horiz-adv-x="167" d="M83 240q-11 0-18-7.5T58 214t7-18 18-7 18.5 7 7.5 18-7.5 18.5T83 240z"/><glyph glyph-name="sfthyphen" horiz-adv-x="167" d="M167 228H0v-30h167v30z"/><glyph glyph-name="minus" d="M65 341v-23h371v23H65z"/><glyph glyph-name="nonbreakingspace" horiz-adv-x="250"/></font>
</defs>
</svg>
